<svg width="248" height="248" viewBox="0 0 248 248" fill="none" xmlns="http://www.w3.org/2000/svg">
<path d="M0.5 0.5H247.5V247.5H0.5V0.5Z" fill="white" stroke="black"/>
<circle cx="124.5" cy="54.5" r="30" fill="white" stroke="black"/>
<mask id="path-3-inside-1" fill="white">
<path d="M155 54.5C155 61.5563 152.553 68.3944 148.077 73.849C143.6 79.3036 137.371 83.0373 130.45 84.414C123.53 85.7906 116.346 84.7249 110.122 81.3986C103.899 78.0723 99.022 72.6911 96.3217 66.1718C93.6213 59.6526 93.265 52.3988 95.3133 45.6463C97.3617 38.8938 101.688 33.0605 107.555 29.1402C113.422 25.2199 120.467 23.4552 127.49 24.1469C134.512 24.8385 141.077 27.9437 146.067 32.9332L124.5 54.5H155Z"/>
</mask>
<path d="M155 54.5C155 61.5563 152.553 68.3944 148.077 73.849C143.6 79.3036 137.371 83.0373 130.45 84.414C123.53 85.7906 116.346 84.7249 110.122 81.3986C103.899 78.0723 99.022 72.6911 96.3217 66.1718C93.6213 59.6526 93.265 52.3988 95.3133 45.6463C97.3617 38.8938 101.688 33.0605 107.555 29.1402C113.422 25.2199 120.467 23.4552 127.49 24.1469C134.512 24.8385 141.077 27.9437 146.067 32.9332L124.5 54.5H155Z" fill="white" stroke="black" stroke-width="2" mask="url(#path-3-inside-1)"/>
<mask id="path-4-inside-2" fill="white">
<path d="M155 54.5C155 60.5323 153.211 66.4292 149.86 71.4449C146.508 76.4606 141.745 80.3699 136.172 82.6783C130.599 84.9868 124.466 85.5908 118.55 84.414C112.633 83.2371 107.199 80.3323 102.933 76.0668C98.6677 71.8013 95.7629 66.3667 94.586 60.4503C93.4092 54.5338 94.0132 48.4013 96.3217 42.8282C98.6301 37.255 102.539 32.4916 107.555 29.1402C112.571 25.7888 118.468 24 124.5 24L124.5 54.5H155Z"/>
</mask>
<path d="M155 54.5C155 60.5323 153.211 66.4292 149.86 71.4449C146.508 76.4606 141.745 80.3699 136.172 82.6783C130.599 84.9868 124.466 85.5908 118.55 84.414C112.633 83.2371 107.199 80.3323 102.933 76.0668C98.6677 71.8013 95.7629 66.3667 94.586 60.4503C93.4092 54.5338 94.0132 48.4013 96.3217 42.8282C98.6301 37.255 102.539 32.4916 107.555 29.1402C112.571 25.7888 118.468 24 124.5 24L124.5 54.5H155Z" fill="white" stroke="black" stroke-width="2" mask="url(#path-4-inside-2)"/>
<mask id="path-5-inside-3" fill="white">
<path d="M155 54.5C155 59.8539 153.591 65.1134 150.914 69.75C148.237 74.3866 144.387 78.2368 139.75 80.9138C135.113 83.5907 129.854 85 124.5 85C119.146 85 113.887 83.5907 109.25 80.9138C104.613 78.2368 100.763 74.3866 98.0862 69.75C95.4093 65.1134 94 59.8539 94 54.5C94 49.1461 95.4093 43.8866 98.0862 39.25C100.763 34.6134 104.613 30.7632 109.25 28.0862L124.5 54.5H155Z"/>
</mask>
<path d="M155 54.5C155 59.8539 153.591 65.1134 150.914 69.75C148.237 74.3866 144.387 78.2368 139.75 80.9138C135.113 83.5907 129.854 85 124.5 85C119.146 85 113.887 83.5907 109.25 80.9138C104.613 78.2368 100.763 74.3866 98.0862 69.75C95.4093 65.1134 94 59.8539 94 54.5C94 49.1461 95.4093 43.8866 98.0862 39.25C100.763 34.6134 104.613 30.7632 109.25 28.0862L124.5 54.5H155Z" fill="white" stroke="black" stroke-width="2" mask="url(#path-5-inside-3)"/>
<mask id="path-6-inside-4" fill="white">
<path d="M155 54.5C155 59.8539 153.591 65.1134 150.914 69.75C148.237 74.3866 144.387 78.2368 139.75 80.9138C135.113 83.5907 129.854 85 124.5 85C119.146 85 113.887 83.5907 109.25 80.9138L124.5 54.5H155Z"/>
</mask>
<path d="M155 54.5C155 59.8539 153.591 65.1134 150.914 69.75C148.237 74.3866 144.387 78.2368 139.75 80.9138C135.113 83.5907 129.854 85 124.5 85C119.146 85 113.887 83.5907 109.25 80.9138L124.5 54.5H155Z" fill="white" stroke="black" stroke-width="2" mask="url(#path-6-inside-4)"/>
<circle cx="124.5" cy="54.5" r="27" fill="white" stroke="black"/>
<circle cx="124.5" cy="54.5" r="23" fill="white" stroke="black"/>
<circle cx="124.5" cy="54.4999" r="15" fill="white" stroke="black"/>
<path d="M116.507 52.4786H115.367L113.989 56.6761H113.932L112.551 52.4786H111.411L113.393 57.9332H114.529L116.507 52.4786ZM123.46 50.6604H122.373V56.0013H122.306L118.606 50.6604H117.59V57.9332H118.687V52.5994H118.755L122.452 57.9332H123.46V50.6604ZM127.273 58.0433C128.811 58.0433 129.816 56.9175 129.816 55.2308C129.816 53.5333 128.811 52.4076 127.273 52.4076C125.735 52.4076 124.73 53.5333 124.73 55.2308C124.73 56.9175 125.735 58.0433 127.273 58.0433ZM127.277 57.1519C126.272 57.1519 125.803 56.2748 125.803 55.2272C125.803 54.1832 126.272 53.2954 127.277 53.2954C128.275 53.2954 128.743 54.1832 128.743 55.2272C128.743 56.2748 128.275 57.1519 127.277 57.1519ZM132.017 57.9332H133.097L134.205 53.995H134.287L135.395 57.9332H136.478L138.079 52.4786H136.982L135.92 56.4665H135.867L134.801 52.4786H133.704L132.632 56.4843H132.578L131.51 52.4786H130.412L132.017 57.9332Z" fill="black"/>
<circle cx="101.5" cy="149.5" r="30" fill="white" stroke="black"/>
<mask id="path-12-inside-5" fill="white">
<path d="M132 149.5C132 156.556 129.553 163.394 125.077 168.849C120.6 174.304 114.371 178.037 107.45 179.414C100.53 180.791 93.3455 179.725 87.1224 176.399C80.8993 173.072 76.022 167.691 73.3217 161.172C70.6213 154.653 70.265 147.399 72.3133 140.646C74.3617 133.894 78.688 128.06 84.5551 124.14C90.4222 120.22 97.4672 118.455 104.49 119.147C111.512 119.839 118.077 122.944 123.067 127.933L101.5 149.5H132Z"/>
</mask>
<path d="M132 149.5C132 156.556 129.553 163.394 125.077 168.849C120.6 174.304 114.371 178.037 107.45 179.414C100.53 180.791 93.3455 179.725 87.1224 176.399C80.8993 173.072 76.022 167.691 73.3217 161.172C70.6213 154.653 70.265 147.399 72.3133 140.646C74.3617 133.894 78.688 128.06 84.5551 124.14C90.4222 120.22 97.4672 118.455 104.49 119.147C111.512 119.839 118.077 122.944 123.067 127.933L101.5 149.5H132Z" fill="white" stroke="black" stroke-width="2" mask="url(#path-12-inside-5)"/>
<mask id="path-13-inside-6" fill="white">
<path d="M132 149.5C132 155.532 130.211 161.429 126.86 166.445C123.508 171.461 118.745 175.37 113.172 177.678C107.599 179.987 101.466 180.591 95.5497 179.414C89.6333 178.237 84.1987 175.332 79.9332 171.067C75.6677 166.801 72.7629 161.367 71.586 155.45C70.4092 149.534 71.0132 143.401 73.3217 137.828C75.6301 132.255 79.5394 127.492 84.5551 124.14C89.5708 120.789 95.4677 119 101.5 119L101.5 149.5H132Z"/>
</mask>
<path d="M132 149.5C132 155.532 130.211 161.429 126.86 166.445C123.508 171.461 118.745 175.37 113.172 177.678C107.599 179.987 101.466 180.591 95.5497 179.414C89.6333 178.237 84.1987 175.332 79.9332 171.067C75.6677 166.801 72.7629 161.367 71.586 155.45C70.4092 149.534 71.0132 143.401 73.3217 137.828C75.6301 132.255 79.5394 127.492 84.5551 124.14C89.5708 120.789 95.4677 119 101.5 119L101.5 149.5H132Z" fill="white" stroke="black" stroke-width="2" mask="url(#path-13-inside-6)"/>
<mask id="path-14-inside-7" fill="white">
<path d="M132 149.5C132 154.854 130.591 160.113 127.914 164.75C125.237 169.387 121.387 173.237 116.75 175.914C112.113 178.591 106.854 180 101.5 180C96.1461 180 90.8866 178.591 86.25 175.914C81.6134 173.237 77.7632 169.387 75.0862 164.75C72.4093 160.113 71 154.854 71 149.5C71 144.146 72.4093 138.887 75.0862 134.25C77.7632 129.613 81.6134 125.763 86.25 123.086L101.5 149.5H132Z"/>
</mask>
<path d="M132 149.5C132 154.854 130.591 160.113 127.914 164.75C125.237 169.387 121.387 173.237 116.75 175.914C112.113 178.591 106.854 180 101.5 180C96.1461 180 90.8866 178.591 86.25 175.914C81.6134 173.237 77.7632 169.387 75.0862 164.75C72.4093 160.113 71 154.854 71 149.5C71 144.146 72.4093 138.887 75.0862 134.25C77.7632 129.613 81.6134 125.763 86.25 123.086L101.5 149.5H132Z" fill="white" stroke="black" stroke-width="2" mask="url(#path-14-inside-7)"/>
<mask id="path-15-inside-8" fill="white">
<path d="M132 149.5C132 154.854 130.591 160.113 127.914 164.75C125.237 169.387 121.387 173.237 116.75 175.914C112.113 178.591 106.854 180 101.5 180C96.1461 180 90.8866 178.591 86.25 175.914L101.5 149.5H132Z"/>
</mask>
<path d="M132 149.5C132 154.854 130.591 160.113 127.914 164.75C125.237 169.387 121.387 173.237 116.75 175.914C112.113 178.591 106.854 180 101.5 180C96.1461 180 90.8866 178.591 86.25 175.914L101.5 149.5H132Z" fill="white" stroke="black" stroke-width="2" mask="url(#path-15-inside-8)"/>
<circle cx="101.5" cy="149.5" r="27" fill="white" stroke="black"/>
<circle cx="101.5" cy="149.5" r="23" fill="white" stroke="black"/>
<circle cx="101.5" cy="149.5" r="15" fill="white" stroke="black"/>
<path d="M100.232 147.479H99.0916L97.7138 151.676H97.657L96.2756 147.479H95.1357L97.1172 152.933H98.2536L100.232 147.479ZM101.215 152.933H106.002V151.992H102.728V151.939L104.173 150.426C105.505 149.08 105.885 148.437 105.885 147.624C105.885 146.456 104.933 145.561 103.562 145.561C102.202 145.561 101.208 146.442 101.208 147.77H102.256C102.252 146.989 102.756 146.477 103.541 146.477C104.28 146.477 104.841 146.932 104.841 147.656C104.841 148.299 104.457 148.761 103.676 149.588L101.215 152.138V152.933Z" fill="black"/>
<circle cx="62.5" cy="149.5" r="30" fill="white" stroke="black"/>
<mask id="path-21-inside-9" fill="white">
<path d="M93 149.5C93 156.556 90.5533 163.394 86.0768 168.849C81.6003 174.304 75.371 178.037 68.4503 179.414C61.5295 180.791 54.3455 179.725 48.1224 176.399C41.8993 173.072 37.022 167.691 34.3217 161.172C31.6213 154.653 31.265 147.399 33.3133 140.646C35.3617 133.894 39.688 128.06 45.5551 124.14C51.4222 120.22 58.4672 118.455 65.4895 119.147C72.5119 119.839 79.0772 122.944 84.0668 127.933L62.5 149.5H93Z"/>
</mask>
<path d="M93 149.5C93 156.556 90.5533 163.394 86.0768 168.849C81.6003 174.304 75.371 178.037 68.4503 179.414C61.5295 180.791 54.3455 179.725 48.1224 176.399C41.8993 173.072 37.022 167.691 34.3217 161.172C31.6213 154.653 31.265 147.399 33.3133 140.646C35.3617 133.894 39.688 128.06 45.5551 124.14C51.4222 120.22 58.4672 118.455 65.4895 119.147C72.5119 119.839 79.0772 122.944 84.0668 127.933L62.5 149.5H93Z" fill="white" stroke="black" stroke-width="2" mask="url(#path-21-inside-9)"/>
<mask id="path-22-inside-10" fill="white">
<path d="M93 149.5C93 155.532 91.2112 161.429 87.8598 166.445C84.5084 171.461 79.745 175.37 74.1718 177.678C68.5987 179.987 62.4662 180.591 56.5497 179.414C50.6333 178.237 45.1987 175.332 40.9332 171.067C36.6677 166.801 33.7629 161.367 32.586 155.45C31.4092 149.534 32.0132 143.401 34.3217 137.828C36.6301 132.255 40.5394 127.492 45.5551 124.14C50.5708 120.789 56.4677 119 62.5 119L62.5 149.5H93Z"/>
</mask>
<path d="M93 149.5C93 155.532 91.2112 161.429 87.8598 166.445C84.5084 171.461 79.745 175.37 74.1718 177.678C68.5987 179.987 62.4662 180.591 56.5497 179.414C50.6333 178.237 45.1987 175.332 40.9332 171.067C36.6677 166.801 33.7629 161.367 32.586 155.45C31.4092 149.534 32.0132 143.401 34.3217 137.828C36.6301 132.255 40.5394 127.492 45.5551 124.14C50.5708 120.789 56.4677 119 62.5 119L62.5 149.5H93Z" fill="white" stroke="black" stroke-width="2" mask="url(#path-22-inside-10)"/>
<mask id="path-23-inside-11" fill="white">
<path d="M93 149.5C93 154.854 91.5907 160.113 88.9138 164.75C86.2368 169.387 82.3866 173.237 77.75 175.914C73.1134 178.591 67.8539 180 62.5 180C57.1461 180 51.8866 178.591 47.25 175.914C42.6134 173.237 38.7632 169.387 36.0862 164.75C33.4093 160.113 32 154.854 32 149.5C32 144.146 33.4093 138.887 36.0862 134.25C38.7632 129.613 42.6134 125.763 47.25 123.086L62.5 149.5H93Z"/>
</mask>
<path d="M93 149.5C93 154.854 91.5907 160.113 88.9138 164.75C86.2368 169.387 82.3866 173.237 77.75 175.914C73.1134 178.591 67.8539 180 62.5 180C57.1461 180 51.8866 178.591 47.25 175.914C42.6134 173.237 38.7632 169.387 36.0862 164.75C33.4093 160.113 32 154.854 32 149.5C32 144.146 33.4093 138.887 36.0862 134.25C38.7632 129.613 42.6134 125.763 47.25 123.086L62.5 149.5H93Z" fill="white" stroke="black" stroke-width="2" mask="url(#path-23-inside-11)"/>
<mask id="path-24-inside-12" fill="white">
<path d="M93 149.5C93 154.854 91.5907 160.113 88.9138 164.75C86.2368 169.387 82.3866 173.237 77.75 175.914C73.1134 178.591 67.8539 180 62.5 180C57.1461 180 51.8866 178.591 47.25 175.914L62.5 149.5H93Z"/>
</mask>
<path d="M93 149.5C93 154.854 91.5907 160.113 88.9138 164.75C86.2368 169.387 82.3866 173.237 77.75 175.914C73.1134 178.591 67.8539 180 62.5 180C57.1461 180 51.8866 178.591 47.25 175.914L62.5 149.5H93Z" fill="white" stroke="black" stroke-width="2" mask="url(#path-24-inside-12)"/>
<circle cx="62.5" cy="149.5" r="27" fill="white" stroke="black"/>
<circle cx="62.5" cy="149.5" r="23" fill="white" stroke="black"/>
<circle cx="62.5" cy="149.5" r="15" fill="white" stroke="black"/>
<path d="M62.4347 147.479H61.2947L59.9169 151.676H59.8601L58.4787 147.479H57.3388L59.3203 152.933H60.4567L62.4347 147.479ZM66.1776 145.66H65.1087L63.294 146.847V147.898L65.0341 146.761H65.0767V152.933H66.1776V145.66Z" fill="black"/>
<circle cx="185.5" cy="149.5" r="30" fill="white" stroke="black"/>
<mask id="path-30-inside-13" fill="white">
<path d="M216 149.5C216 156.556 213.553 163.394 209.077 168.849C204.6 174.304 198.371 178.037 191.45 179.414C184.53 180.791 177.346 179.725 171.122 176.399C164.899 173.072 160.022 167.691 157.322 161.172C154.621 154.653 154.265 147.399 156.313 140.646C158.362 133.894 162.688 128.06 168.555 124.14C174.422 120.22 181.467 118.455 188.49 119.147C195.512 119.839 202.077 122.944 207.067 127.933L185.5 149.5H216Z"/>
</mask>
<path d="M216 149.5C216 156.556 213.553 163.394 209.077 168.849C204.6 174.304 198.371 178.037 191.45 179.414C184.53 180.791 177.346 179.725 171.122 176.399C164.899 173.072 160.022 167.691 157.322 161.172C154.621 154.653 154.265 147.399 156.313 140.646C158.362 133.894 162.688 128.06 168.555 124.14C174.422 120.22 181.467 118.455 188.49 119.147C195.512 119.839 202.077 122.944 207.067 127.933L185.5 149.5H216Z" fill="white" stroke="black" stroke-width="2" mask="url(#path-30-inside-13)"/>
<mask id="path-31-inside-14" fill="white">
<path d="M216 149.5C216 155.532 214.211 161.429 210.86 166.445C207.508 171.461 202.745 175.37 197.172 177.678C191.599 179.987 185.466 180.591 179.55 179.414C173.633 178.237 168.199 175.332 163.933 171.067C159.668 166.801 156.763 161.367 155.586 155.45C154.409 149.534 155.013 143.401 157.322 137.828C159.63 132.255 163.539 127.492 168.555 124.14C173.571 120.789 179.468 119 185.5 119L185.5 149.5H216Z"/>
</mask>
<path d="M216 149.5C216 155.532 214.211 161.429 210.86 166.445C207.508 171.461 202.745 175.37 197.172 177.678C191.599 179.987 185.466 180.591 179.55 179.414C173.633 178.237 168.199 175.332 163.933 171.067C159.668 166.801 156.763 161.367 155.586 155.45C154.409 149.534 155.013 143.401 157.322 137.828C159.63 132.255 163.539 127.492 168.555 124.14C173.571 120.789 179.468 119 185.5 119L185.5 149.5H216Z" fill="white" stroke="black" stroke-width="2" mask="url(#path-31-inside-14)"/>
<mask id="path-32-inside-15" fill="white">
<path d="M216 149.5C216 154.854 214.591 160.113 211.914 164.75C209.237 169.387 205.387 173.237 200.75 175.914C196.113 178.591 190.854 180 185.5 180C180.146 180 174.887 178.591 170.25 175.914C165.613 173.237 161.763 169.387 159.086 164.75C156.409 160.113 155 154.854 155 149.5C155 144.146 156.409 138.887 159.086 134.25C161.763 129.613 165.613 125.763 170.25 123.086L185.5 149.5H216Z"/>
</mask>
<path d="M216 149.5C216 154.854 214.591 160.113 211.914 164.75C209.237 169.387 205.387 173.237 200.75 175.914C196.113 178.591 190.854 180 185.5 180C180.146 180 174.887 178.591 170.25 175.914C165.613 173.237 161.763 169.387 159.086 164.75C156.409 160.113 155 154.854 155 149.5C155 144.146 156.409 138.887 159.086 134.25C161.763 129.613 165.613 125.763 170.25 123.086L185.5 149.5H216Z" fill="white" stroke="black" stroke-width="2" mask="url(#path-32-inside-15)"/>
<mask id="path-33-inside-16" fill="white">
<path d="M216 149.5C216 154.854 214.591 160.113 211.914 164.75C209.237 169.387 205.387 173.237 200.75 175.914C196.113 178.591 190.854 180 185.5 180C180.146 180 174.887 178.591 170.25 175.914L185.5 149.5H216Z"/>
</mask>
<path d="M216 149.5C216 154.854 214.591 160.113 211.914 164.75C209.237 169.387 205.387 173.237 200.75 175.914C196.113 178.591 190.854 180 185.5 180C180.146 180 174.887 178.591 170.25 175.914L185.5 149.5H216Z" fill="white" stroke="black" stroke-width="2" mask="url(#path-33-inside-16)"/>
<circle cx="185.5" cy="149.5" r="27" fill="white" stroke="black"/>
<circle cx="185.5" cy="149.5" r="23" fill="white" stroke="black"/>
<circle cx="185.5" cy="149.5" r="15" fill="white" stroke="black"/>
<path d="M184.526 147.479H183.387L182.009 151.676H181.952L180.57 147.479H179.431L181.412 152.933H182.548L184.526 147.479ZM185.357 151.513H188.806V152.933H189.853V151.513H190.816V150.582H189.853V145.66H188.5L185.357 150.625V151.513ZM188.813 150.582H186.508V150.525L188.756 146.967H188.813V150.582Z" fill="black"/>
<circle cx="146.5" cy="149.5" r="30" fill="white" stroke="black"/>
<mask id="path-39-inside-17" fill="white">
<path d="M177 149.5C177 156.556 174.553 163.394 170.077 168.849C165.6 174.304 159.371 178.037 152.45 179.414C145.53 180.791 138.346 179.725 132.122 176.399C125.899 173.072 121.022 167.691 118.322 161.172C115.621 154.653 115.265 147.399 117.313 140.646C119.362 133.894 123.688 128.06 129.555 124.14C135.422 120.22 142.467 118.455 149.49 119.147C156.512 119.839 163.077 122.944 168.067 127.933L146.5 149.5H177Z"/>
</mask>
<path d="M177 149.5C177 156.556 174.553 163.394 170.077 168.849C165.6 174.304 159.371 178.037 152.45 179.414C145.53 180.791 138.346 179.725 132.122 176.399C125.899 173.072 121.022 167.691 118.322 161.172C115.621 154.653 115.265 147.399 117.313 140.646C119.362 133.894 123.688 128.06 129.555 124.14C135.422 120.22 142.467 118.455 149.49 119.147C156.512 119.839 163.077 122.944 168.067 127.933L146.5 149.5H177Z" fill="white" stroke="black" stroke-width="2" mask="url(#path-39-inside-17)"/>
<mask id="path-40-inside-18" fill="white">
<path d="M177 149.5C177 155.532 175.211 161.429 171.86 166.445C168.508 171.461 163.745 175.37 158.172 177.678C152.599 179.987 146.466 180.591 140.55 179.414C134.633 178.237 129.199 175.332 124.933 171.067C120.668 166.801 117.763 161.367 116.586 155.45C115.409 149.534 116.013 143.401 118.322 137.828C120.63 132.255 124.539 127.492 129.555 124.14C134.571 120.789 140.468 119 146.5 119L146.5 149.5H177Z"/>
</mask>
<path d="M177 149.5C177 155.532 175.211 161.429 171.86 166.445C168.508 171.461 163.745 175.37 158.172 177.678C152.599 179.987 146.466 180.591 140.55 179.414C134.633 178.237 129.199 175.332 124.933 171.067C120.668 166.801 117.763 161.367 116.586 155.45C115.409 149.534 116.013 143.401 118.322 137.828C120.63 132.255 124.539 127.492 129.555 124.14C134.571 120.789 140.468 119 146.5 119L146.5 149.5H177Z" fill="white" stroke="black" stroke-width="2" mask="url(#path-40-inside-18)"/>
<mask id="path-41-inside-19" fill="white">
<path d="M177 149.5C177 154.854 175.591 160.113 172.914 164.75C170.237 169.387 166.387 173.237 161.75 175.914C157.113 178.591 151.854 180 146.5 180C141.146 180 135.887 178.591 131.25 175.914C126.613 173.237 122.763 169.387 120.086 164.75C117.409 160.113 116 154.854 116 149.5C116 144.146 117.409 138.887 120.086 134.25C122.763 129.613 126.613 125.763 131.25 123.086L146.5 149.5H177Z"/>
</mask>
<path d="M177 149.5C177 154.854 175.591 160.113 172.914 164.75C170.237 169.387 166.387 173.237 161.75 175.914C157.113 178.591 151.854 180 146.5 180C141.146 180 135.887 178.591 131.25 175.914C126.613 173.237 122.763 169.387 120.086 164.75C117.409 160.113 116 154.854 116 149.5C116 144.146 117.409 138.887 120.086 134.25C122.763 129.613 126.613 125.763 131.25 123.086L146.5 149.5H177Z" fill="white" stroke="black" stroke-width="2" mask="url(#path-41-inside-19)"/>
<mask id="path-42-inside-20" fill="white">
<path d="M177 149.5C177 154.854 175.591 160.113 172.914 164.75C170.237 169.387 166.387 173.237 161.75 175.914C157.113 178.591 151.854 180 146.5 180C141.146 180 135.887 178.591 131.25 175.914L146.5 149.5H177Z"/>
</mask>
<path d="M177 149.5C177 154.854 175.591 160.113 172.914 164.75C170.237 169.387 166.387 173.237 161.75 175.914C157.113 178.591 151.854 180 146.5 180C141.146 180 135.887 178.591 131.25 175.914L146.5 149.5H177Z" fill="white" stroke="black" stroke-width="2" mask="url(#path-42-inside-20)"/>
<circle cx="146.5" cy="149.5" r="27" fill="white" stroke="black"/>
<circle cx="146.5" cy="149.5" r="23" fill="white" stroke="black"/>
<circle cx="146.5" cy="149.5" r="15" fill="white" stroke="black"/>
<path d="M145.575 147.479H144.435L143.058 151.676H143.001L141.619 147.479H140.479L142.461 152.933H143.597L145.575 147.479ZM149.091 153.033C150.575 153.033 151.665 152.145 151.662 150.937C151.665 150.018 151.108 149.357 150.142 149.208V149.151C150.902 148.956 151.396 148.359 151.392 147.543C151.396 146.474 150.518 145.561 149.119 145.561C147.784 145.561 146.712 146.367 146.676 147.55H147.738C147.763 146.882 148.391 146.477 149.105 146.477C149.847 146.477 150.334 146.928 150.33 147.599C150.334 148.302 149.769 148.764 148.963 148.764H148.349V149.659H148.963C149.972 149.659 150.554 150.17 150.554 150.902C150.554 151.609 149.94 152.088 149.084 152.088C148.295 152.088 147.681 151.683 147.638 151.037H146.523C146.57 152.223 147.621 153.033 149.091 153.033Z" fill="black"/>
<rect x="32.5" y="160.5" width="183" height="60" fill="white" stroke="black"/>
<path d="M36.799 203H41.1918V202.055H37.8963V195.727H36.799V203ZM42.3583 203H43.4201V197.545H42.3583V203ZM42.8945 196.704C43.2603 196.704 43.5657 196.42 43.5657 196.072C43.5657 195.724 43.2603 195.436 42.8945 195.436C42.5252 195.436 42.2234 195.724 42.2234 196.072C42.2234 196.42 42.5252 196.704 42.8945 196.704ZM47.4444 197.545H46.269V197.055C46.269 196.572 46.4679 196.31 46.9863 196.31C47.2065 196.31 47.3627 196.359 47.4622 196.391L47.7108 195.532C47.5616 195.475 47.2527 195.386 46.823 195.386C45.96 195.386 45.2037 195.891 45.2037 196.913V197.545H44.362V198.398H45.2037V203H46.269V198.398H47.4444V197.545ZM50.676 203.11C51.8656 203.11 52.7072 202.524 52.9487 201.636L51.9437 201.455C51.752 201.97 51.2903 202.233 50.6866 202.233C49.7775 202.233 49.1667 201.643 49.1383 200.592H53.0162V200.216C53.0162 198.245 51.8372 197.474 50.6014 197.474C49.0815 197.474 48.0801 198.632 48.0801 200.308C48.0801 202.002 49.0673 203.11 50.676 203.11ZM49.1419 199.797C49.1845 199.023 49.7456 198.352 50.6085 198.352C51.4324 198.352 51.9721 198.962 51.9757 199.797H49.1419ZM56.7404 197.545H55.6218V196.239H54.56V197.545H53.761V198.398H54.56V201.619C54.5565 202.609 55.3129 203.089 56.1509 203.071C56.4883 203.067 56.7156 203.004 56.8398 202.957L56.6481 202.08C56.5771 202.094 56.4457 202.126 56.2752 202.126C55.9308 202.126 55.6218 202.013 55.6218 201.398V198.398H56.7404V197.545ZM57.915 203H58.9767V197.545H57.915V203ZM58.4512 196.704C58.8169 196.704 59.1223 196.42 59.1223 196.072C59.1223 195.724 58.8169 195.436 58.4512 195.436C58.0819 195.436 57.78 195.724 57.78 196.072C57.78 196.42 58.0819 196.704 58.4512 196.704ZM60.4052 203H61.467V199.637C61.467 198.902 61.9819 198.391 62.5856 198.391C63.1751 198.391 63.5835 198.781 63.5835 199.374V203H64.6417V199.523C64.6417 198.866 65.043 198.391 65.7354 198.391C66.2965 198.391 66.7582 198.703 66.7582 199.442V203H67.82V199.342C67.82 198.096 67.1239 197.474 66.1367 197.474C65.3519 197.474 64.7624 197.851 64.4996 198.433H64.4428C64.2049 197.837 63.7042 197.474 62.9762 197.474C62.2553 197.474 61.7191 197.833 61.4918 198.433H61.4244V197.545H60.4052V203ZM71.5939 203.11C72.7836 203.11 73.6252 202.524 73.8667 201.636L72.8617 201.455C72.6699 201.97 72.2083 202.233 71.6046 202.233C70.6955 202.233 70.0847 201.643 70.0563 200.592H73.9341V200.216C73.9341 198.245 72.7551 197.474 71.5194 197.474C69.9995 197.474 68.998 198.632 68.998 200.308C68.998 202.002 69.9853 203.11 71.5939 203.11ZM70.0598 199.797C70.1025 199.023 70.6635 198.352 71.5265 198.352C72.3503 198.352 72.8901 198.962 72.8936 199.797H70.0598ZM37.4134 215L38.081 213.075H40.9219L41.5859 215H42.7507L40.1335 207.727H38.8658L36.2486 215H37.4134ZM38.4006 212.152L39.473 209.048H39.5298L40.6023 212.152H38.4006ZM43.7157 215H44.7775V211.669C44.7775 210.955 45.3279 210.44 46.0808 210.44C46.301 210.44 46.5495 210.479 46.6348 210.504V209.489C46.5282 209.474 46.3187 209.464 46.1838 209.464C45.5446 209.464 44.9977 209.826 44.7988 210.412H44.742V209.545H43.7157V215ZM49.6559 215.11C50.945 215.11 51.7795 214.336 51.8967 213.274H50.8633C50.7283 213.864 50.2702 214.212 49.663 214.212C48.7646 214.212 48.1857 213.462 48.1857 212.273C48.1857 211.104 48.7752 210.369 49.663 210.369C50.3377 210.369 50.7496 210.795 50.8633 211.307H51.8967C51.783 210.206 50.8846 209.474 49.6452 209.474C48.1076 209.474 47.1133 210.632 47.1133 212.298C47.1133 213.942 48.0721 215.11 49.6559 215.11ZM54.0939 211.761C54.0939 210.891 54.6444 210.394 55.4007 210.394C56.1323 210.394 56.5691 210.859 56.5691 211.658V215H57.6309V211.531C57.6309 210.17 56.8851 209.474 55.763 209.474C54.9142 209.474 54.4029 209.844 54.1472 210.433H54.0797V207.727H53.0321V215H54.0939V211.761ZM59.0478 215H60.1096V209.545H59.0478V215ZM59.584 208.704C59.9498 208.704 60.2551 208.42 60.2551 208.072C60.2551 207.724 59.9498 207.436 59.584 207.436C59.2147 207.436 58.9128 207.724 58.9128 208.072C58.9128 208.42 59.2147 208.704 59.584 208.704ZM66.2042 209.545H65.0643L63.6864 213.743H63.6296L62.2482 209.545H61.1083L63.0898 215H64.2262L66.2042 209.545ZM69.3576 215.11C70.5472 215.11 71.3888 214.524 71.6303 213.636L70.6254 213.455C70.4336 213.97 69.9719 214.233 69.3683 214.233C68.4592 214.233 67.8484 213.643 67.82 212.592H71.6978V212.216C71.6978 210.245 70.5188 209.474 69.283 209.474C67.7631 209.474 66.7617 210.632 66.7617 212.308C66.7617 214.002 67.7489 215.11 69.3576 215.11ZM67.8235 211.797C67.8661 211.023 68.4272 210.352 69.2901 210.352C70.114 210.352 70.6538 210.962 70.6573 211.797H67.8235Z" fill="black"/>
</svg>
