<svg width="248" height="248" viewBox="0 0 248 248" fill="none" xmlns="http://www.w3.org/2000/svg">
<rect x="0.5" y="0.5" width="247" height="247" fill="white" stroke="black"/>
<path d="M124 74L124 248" stroke="black"/>
<path d="M124 74C124 169.075 28 132.608 28 248" stroke="black"/>
<path d="M124 74C124 169.075 220 132.608 220 248" stroke="black"/>
<path d="M124 74C124 169.075 76 169.075 76 248" stroke="black"/>
<path d="M124 74C124 169.075 172 169.075 172 248" stroke="black"/>
<rect x="178.5" y="227.5" width="15" height="15" rx="7.5" transform="rotate(90 178.5 227.5)" fill="white" stroke="black"/>
<rect x="57.5" y="167.5" width="9" height="9" rx="4.5" transform="rotate(90 57.5 167.5)" fill="black" stroke="black"/>
<rect x="111.5" y="148.5" width="7" height="7" rx="3.5" transform="rotate(90 111.5 148.5)" fill="black" stroke="black"/>
<rect x="133.5" y="126.5" width="5" height="5" rx="2.5" transform="rotate(90 133.5 126.5)" fill="black" stroke="black"/>
<rect x="129.5" y="205.5" width="11" height="11" transform="rotate(90 129.5 205.5)" fill="black" stroke="black"/>
<rect x="213.5" y="185.5" width="11" height="11" transform="rotate(90 213.5 185.5)" fill="white" stroke="black"/>
<circle cx="123.5" cy="43.5" r="30" fill="white" stroke="black"/>
<mask id="path-14-inside-1" fill="white">
<path d="M154 43.5C154 50.5563 151.553 57.3944 147.077 62.849C142.6 68.3036 136.371 72.0373 129.45 73.414C122.53 74.7906 115.346 73.7249 109.122 70.3986C102.899 67.0723 98.022 61.6911 95.3217 55.1718C92.6213 48.6526 92.265 41.3988 94.3133 34.6463C96.3617 27.8938 100.688 22.0605 106.555 18.1402C112.422 14.2199 119.467 12.4552 126.49 13.1469C133.512 13.8385 140.077 16.9437 145.067 21.9332L123.5 43.5H154Z"/>
</mask>
<path d="M154 43.5C154 50.5563 151.553 57.3944 147.077 62.849C142.6 68.3036 136.371 72.0373 129.45 73.414C122.53 74.7906 115.346 73.7249 109.122 70.3986C102.899 67.0723 98.022 61.6911 95.3217 55.1718C92.6213 48.6526 92.265 41.3988 94.3133 34.6463C96.3617 27.8938 100.688 22.0605 106.555 18.1402C112.422 14.2199 119.467 12.4552 126.49 13.1469C133.512 13.8385 140.077 16.9437 145.067 21.9332L123.5 43.5H154Z" fill="white" stroke="black" stroke-width="2" mask="url(#path-14-inside-1)"/>
<mask id="path-15-inside-2" fill="white">
<path d="M154 43.5C154 49.5323 152.211 55.4292 148.86 60.4449C145.508 65.4606 140.745 69.3699 135.172 71.6783C129.599 73.9868 123.466 74.5908 117.55 73.414C111.633 72.2371 106.199 69.3323 101.933 65.0668C97.6677 60.8013 94.7629 55.3667 93.586 49.4503C92.4092 43.5338 93.0132 37.4013 95.3217 31.8282C97.6301 26.255 101.539 21.4916 106.555 18.1402C111.571 14.7888 117.468 13 123.5 13L123.5 43.5H154Z"/>
</mask>
<path d="M154 43.5C154 49.5323 152.211 55.4292 148.86 60.4449C145.508 65.4606 140.745 69.3699 135.172 71.6783C129.599 73.9868 123.466 74.5908 117.55 73.414C111.633 72.2371 106.199 69.3323 101.933 65.0668C97.6677 60.8013 94.7629 55.3667 93.586 49.4503C92.4092 43.5338 93.0132 37.4013 95.3217 31.8282C97.6301 26.255 101.539 21.4916 106.555 18.1402C111.571 14.7888 117.468 13 123.5 13L123.5 43.5H154Z" fill="white" stroke="black" stroke-width="2" mask="url(#path-15-inside-2)"/>
<mask id="path-16-inside-3" fill="white">
<path d="M154 43.5C154 48.8539 152.591 54.1134 149.914 58.75C147.237 63.3866 143.387 67.2368 138.75 69.9138C134.113 72.5907 128.854 74 123.5 74C118.146 74 112.887 72.5907 108.25 69.9138C103.613 67.2368 99.7632 63.3866 97.0862 58.75C94.4093 54.1134 93 48.8539 93 43.5C93 38.1461 94.4093 32.8866 97.0862 28.25C99.7632 23.6134 103.613 19.7632 108.25 17.0862L123.5 43.5H154Z"/>
</mask>
<path d="M154 43.5C154 48.8539 152.591 54.1134 149.914 58.75C147.237 63.3866 143.387 67.2368 138.75 69.9138C134.113 72.5907 128.854 74 123.5 74C118.146 74 112.887 72.5907 108.25 69.9138C103.613 67.2368 99.7632 63.3866 97.0862 58.75C94.4093 54.1134 93 48.8539 93 43.5C93 38.1461 94.4093 32.8866 97.0862 28.25C99.7632 23.6134 103.613 19.7632 108.25 17.0862L123.5 43.5H154Z" fill="white" stroke="black" stroke-width="2" mask="url(#path-16-inside-3)"/>
<mask id="path-17-inside-4" fill="white">
<path d="M154 43.5C154 48.8539 152.591 54.1134 149.914 58.75C147.237 63.3866 143.387 67.2368 138.75 69.9138C134.113 72.5907 128.854 74 123.5 74C118.146 74 112.887 72.5907 108.25 69.9138L123.5 43.5H154Z"/>
</mask>
<path d="M154 43.5C154 48.8539 152.591 54.1134 149.914 58.75C147.237 63.3866 143.387 67.2368 138.75 69.9138C134.113 72.5907 128.854 74 123.5 74C118.146 74 112.887 72.5907 108.25 69.9138L123.5 43.5H154Z" fill="white" stroke="black" stroke-width="2" mask="url(#path-17-inside-4)"/>
<circle cx="123.5" cy="43.5" r="27" fill="white" stroke="black"/>
<circle cx="123.5" cy="43.5" r="23" fill="white" stroke="black"/>
<circle cx="123.5" cy="43.5" r="15" transform="rotate(45 123.5 43.5)" fill="white" stroke="black"/>
<rect x="123" y="47.5355" width="1" height="10.6258" fill="black"/>
<circle cx="123.5" cy="43.5" r="4" transform="rotate(45 123.5 43.5)" fill="black" stroke="white"/>
</svg>
