<svg width="248" height="248" viewBox="0 0 248 248" fill="none" xmlns="http://www.w3.org/2000/svg">
<path d="M0.5 0.5H247.5V247.5H0.5V0.5Z" fill="white" stroke="black"/>
<circle cx="123.5" cy="193.5" r="30" fill="white" stroke="black"/>
<mask id="path-3-inside-1" fill="white">
<path d="M154 193.5C154 200.556 151.553 207.394 147.077 212.849C142.6 218.304 136.371 222.037 129.45 223.414C122.53 224.791 115.346 223.725 109.122 220.399C102.899 217.072 98.022 211.691 95.3217 205.172C92.6213 198.653 92.265 191.399 94.3133 184.646C96.3617 177.894 100.688 172.06 106.555 168.14C112.422 164.22 119.467 162.455 126.49 163.147C133.512 163.839 140.077 166.944 145.067 171.933L123.5 193.5H154Z"/>
</mask>
<path d="M154 193.5C154 200.556 151.553 207.394 147.077 212.849C142.6 218.304 136.371 222.037 129.45 223.414C122.53 224.791 115.346 223.725 109.122 220.399C102.899 217.072 98.022 211.691 95.3217 205.172C92.6213 198.653 92.265 191.399 94.3133 184.646C96.3617 177.894 100.688 172.06 106.555 168.14C112.422 164.22 119.467 162.455 126.49 163.147C133.512 163.839 140.077 166.944 145.067 171.933L123.5 193.5H154Z" fill="white" stroke="black" stroke-width="2" mask="url(#path-3-inside-1)"/>
<mask id="path-4-inside-2" fill="white">
<path d="M154 193.5C154 199.532 152.211 205.429 148.86 210.445C145.508 215.461 140.745 219.37 135.172 221.678C129.599 223.987 123.466 224.591 117.55 223.414C111.633 222.237 106.199 219.332 101.933 215.067C97.6677 210.801 94.7629 205.367 93.586 199.45C92.4092 193.534 93.0132 187.401 95.3217 181.828C97.6301 176.255 101.539 171.492 106.555 168.14C111.571 164.789 117.468 163 123.5 163L123.5 193.5H154Z"/>
</mask>
<path d="M154 193.5C154 199.532 152.211 205.429 148.86 210.445C145.508 215.461 140.745 219.37 135.172 221.678C129.599 223.987 123.466 224.591 117.55 223.414C111.633 222.237 106.199 219.332 101.933 215.067C97.6677 210.801 94.7629 205.367 93.586 199.45C92.4092 193.534 93.0132 187.401 95.3217 181.828C97.6301 176.255 101.539 171.492 106.555 168.14C111.571 164.789 117.468 163 123.5 163L123.5 193.5H154Z" fill="white" stroke="black" stroke-width="2" mask="url(#path-4-inside-2)"/>
<mask id="path-5-inside-3" fill="white">
<path d="M154 193.5C154 198.854 152.591 204.113 149.914 208.75C147.237 213.387 143.387 217.237 138.75 219.914C134.113 222.591 128.854 224 123.5 224C118.146 224 112.887 222.591 108.25 219.914C103.613 217.237 99.7632 213.387 97.0862 208.75C94.4093 204.113 93 198.854 93 193.5C93 188.146 94.4093 182.887 97.0862 178.25C99.7632 173.613 103.613 169.763 108.25 167.086L123.5 193.5H154Z"/>
</mask>
<path d="M154 193.5C154 198.854 152.591 204.113 149.914 208.75C147.237 213.387 143.387 217.237 138.75 219.914C134.113 222.591 128.854 224 123.5 224C118.146 224 112.887 222.591 108.25 219.914C103.613 217.237 99.7632 213.387 97.0862 208.75C94.4093 204.113 93 198.854 93 193.5C93 188.146 94.4093 182.887 97.0862 178.25C99.7632 173.613 103.613 169.763 108.25 167.086L123.5 193.5H154Z" fill="white" stroke="black" stroke-width="2" mask="url(#path-5-inside-3)"/>
<mask id="path-6-inside-4" fill="white">
<path d="M154 193.5C154 198.854 152.591 204.113 149.914 208.75C147.237 213.387 143.387 217.237 138.75 219.914C134.113 222.591 128.854 224 123.5 224C118.146 224 112.887 222.591 108.25 219.914L123.5 193.5H154Z"/>
</mask>
<path d="M154 193.5C154 198.854 152.591 204.113 149.914 208.75C147.237 213.387 143.387 217.237 138.75 219.914C134.113 222.591 128.854 224 123.5 224C118.146 224 112.887 222.591 108.25 219.914L123.5 193.5H154Z" fill="white" stroke="black" stroke-width="2" mask="url(#path-6-inside-4)"/>
<circle cx="123.5" cy="193.5" r="27" fill="white" stroke="black"/>
<circle cx="123.5" cy="193.5" r="23" fill="white" stroke="black"/>
<circle cx="123.5" cy="193.5" r="15" transform="rotate(150 123.5 193.5)" fill="white" stroke="black"/>
<circle cx="123.501" cy="193.5" r="4" transform="rotate(150 123.501 193.5)" fill="white" stroke="black"/>
<rect x="119.732" y="191.973" width="1" height="10.6258" transform="rotate(105 119.732 191.973)" fill="black"/>
<circle cx="74.3555" cy="173.144" r="30" fill="white" stroke="black"/>
<mask id="path-13-inside-5" fill="white">
<path d="M104.855 173.144C104.855 180.2 102.409 187.038 97.9323 192.493C93.4558 197.947 87.2265 201.681 80.3057 203.058C73.385 204.434 66.201 203.368 59.9779 200.042C53.7547 196.716 48.8775 191.335 46.1771 184.815C43.4768 178.296 43.1204 171.042 45.1688 164.29C47.2171 157.537 51.5434 151.704 57.4106 147.784C63.2777 143.863 70.3226 142.099 77.345 142.79C84.3673 143.482 90.9326 146.587 95.9222 151.577L74.3555 173.144H104.855Z"/>
</mask>
<path d="M104.855 173.144C104.855 180.2 102.409 187.038 97.9323 192.493C93.4558 197.947 87.2265 201.681 80.3057 203.058C73.385 204.434 66.201 203.368 59.9779 200.042C53.7547 196.716 48.8775 191.335 46.1771 184.815C43.4768 178.296 43.1204 171.042 45.1688 164.29C47.2171 157.537 51.5434 151.704 57.4106 147.784C63.2777 143.863 70.3226 142.099 77.345 142.79C84.3673 143.482 90.9326 146.587 95.9222 151.577L74.3555 173.144H104.855Z" fill="white" stroke="black" stroke-width="2" mask="url(#path-13-inside-5)"/>
<mask id="path-14-inside-6" fill="white">
<path d="M104.855 173.144C104.855 179.176 103.067 185.073 99.7153 190.088C96.3639 195.104 91.6005 199.013 86.0273 201.322C80.4542 203.63 74.3216 204.234 68.4052 203.058C62.4888 201.881 57.0542 198.976 52.7887 194.71C48.5232 190.445 45.6184 185.01 44.4415 179.094C43.2647 173.177 43.8687 167.045 46.1771 161.472C48.4856 155.899 52.3949 151.135 57.4106 147.784C62.4263 144.432 68.3231 142.644 74.3555 142.644L74.3555 173.144H104.855Z"/>
</mask>
<path d="M104.855 173.144C104.855 179.176 103.067 185.073 99.7153 190.088C96.3639 195.104 91.6005 199.013 86.0273 201.322C80.4542 203.63 74.3216 204.234 68.4052 203.058C62.4888 201.881 57.0542 198.976 52.7887 194.71C48.5232 190.445 45.6184 185.01 44.4415 179.094C43.2647 173.177 43.8687 167.045 46.1771 161.472C48.4856 155.899 52.3949 151.135 57.4106 147.784C62.4263 144.432 68.3231 142.644 74.3555 142.644L74.3555 173.144H104.855Z" fill="white" stroke="black" stroke-width="2" mask="url(#path-14-inside-6)"/>
<mask id="path-15-inside-7" fill="white">
<path d="M104.855 173.144C104.855 178.497 103.446 183.757 100.769 188.394C98.0923 193.03 94.2421 196.88 89.6055 199.557C84.9689 202.234 79.7093 203.644 74.3555 203.644C69.0016 203.644 63.7421 202.234 59.1055 199.557C54.4689 196.88 50.6186 193.03 47.9417 188.394C45.2648 183.757 43.8555 178.497 43.8555 173.144C43.8555 167.79 45.2648 162.53 47.9417 157.894C50.6186 153.257 54.4689 149.407 59.1055 146.73L74.3555 173.144H104.855Z"/>
</mask>
<path d="M104.855 173.144C104.855 178.497 103.446 183.757 100.769 188.394C98.0923 193.03 94.2421 196.88 89.6055 199.557C84.9689 202.234 79.7093 203.644 74.3555 203.644C69.0016 203.644 63.7421 202.234 59.1055 199.557C54.4689 196.88 50.6186 193.03 47.9417 188.394C45.2648 183.757 43.8555 178.497 43.8555 173.144C43.8555 167.79 45.2648 162.53 47.9417 157.894C50.6186 153.257 54.4689 149.407 59.1055 146.73L74.3555 173.144H104.855Z" fill="white" stroke="black" stroke-width="2" mask="url(#path-15-inside-7)"/>
<mask id="path-16-inside-8" fill="white">
<path d="M104.855 173.144C104.855 178.497 103.446 183.757 100.769 188.394C98.0923 193.03 94.2421 196.88 89.6055 199.557C84.9689 202.234 79.7093 203.644 74.3555 203.644C69.0016 203.644 63.7421 202.234 59.1055 199.557L74.3555 173.144H104.855Z"/>
</mask>
<path d="M104.855 173.144C104.855 178.497 103.446 183.757 100.769 188.394C98.0923 193.03 94.2421 196.88 89.6055 199.557C84.9689 202.234 79.7093 203.644 74.3555 203.644C69.0016 203.644 63.7421 202.234 59.1055 199.557L74.3555 173.144H104.855Z" fill="white" stroke="black" stroke-width="2" mask="url(#path-16-inside-8)"/>
<circle cx="74.3555" cy="173.144" r="27" fill="white" stroke="black"/>
<circle cx="74.3555" cy="173.144" r="23" fill="white" stroke="black"/>
<circle cx="74.3559" cy="173.144" r="15" transform="rotate(150 74.3559 173.144)" fill="white" stroke="black"/>
<circle cx="74.3568" cy="173.144" r="4" transform="rotate(150 74.3568 173.144)" fill="white" stroke="black"/>
<rect x="70.5879" y="171.616" width="1" height="10.6258" transform="rotate(105 70.5879 171.616)" fill="black"/>
<circle cx="54" cy="124" r="30" fill="white" stroke="black"/>
<mask id="path-23-inside-9" fill="white">
<path d="M84.5 124C84.5 131.056 82.0533 137.894 77.5768 143.349C73.1003 148.804 66.871 152.537 59.9503 153.914C53.0295 155.291 45.8455 154.225 39.6224 150.899C33.3993 147.572 28.522 142.191 25.8217 135.672C23.1213 129.153 22.765 121.899 24.8133 115.146C26.8617 108.394 31.188 102.56 37.0551 98.6402C42.9222 94.7199 49.9672 92.9552 56.9895 93.6469C64.0119 94.3385 70.5772 97.4437 75.5668 102.433L54 124L84.5 124Z"/>
</mask>
<path d="M84.5 124C84.5 131.056 82.0533 137.894 77.5768 143.349C73.1003 148.804 66.871 152.537 59.9503 153.914C53.0295 155.291 45.8455 154.225 39.6224 150.899C33.3993 147.572 28.522 142.191 25.8217 135.672C23.1213 129.153 22.765 121.899 24.8133 115.146C26.8617 108.394 31.188 102.56 37.0551 98.6402C42.9222 94.7199 49.9672 92.9552 56.9895 93.6469C64.0119 94.3385 70.5772 97.4437 75.5668 102.433L54 124L84.5 124Z" fill="white" stroke="black" stroke-width="2" mask="url(#path-23-inside-9)"/>
<mask id="path-24-inside-10" fill="white">
<path d="M84.5 124C84.5 130.032 82.7112 135.929 79.3598 140.945C76.0084 145.961 71.245 149.87 65.6718 152.178C60.0987 154.487 53.9662 155.091 48.0497 153.914C42.1333 152.737 36.6987 149.832 32.4332 145.567C28.1677 141.301 25.2629 135.867 24.086 129.95C22.9092 124.034 23.5132 117.901 25.8217 112.328C28.1301 106.755 32.0394 101.992 37.0551 98.6402C42.0708 95.2888 47.9677 93.5 54 93.5L54 124L84.5 124Z"/>
</mask>
<path d="M84.5 124C84.5 130.032 82.7112 135.929 79.3598 140.945C76.0084 145.961 71.245 149.87 65.6718 152.178C60.0987 154.487 53.9662 155.091 48.0497 153.914C42.1333 152.737 36.6987 149.832 32.4332 145.567C28.1677 141.301 25.2629 135.867 24.086 129.95C22.9092 124.034 23.5132 117.901 25.8217 112.328C28.1301 106.755 32.0394 101.992 37.0551 98.6402C42.0708 95.2888 47.9677 93.5 54 93.5L54 124L84.5 124Z" fill="white" stroke="black" stroke-width="2" mask="url(#path-24-inside-10)"/>
<mask id="path-25-inside-11" fill="white">
<path d="M84.5 124C84.5 129.354 83.0907 134.613 80.4138 139.25C77.7368 143.887 73.8866 147.737 69.25 150.414C64.6134 153.091 59.3539 154.5 54 154.5C48.6461 154.5 43.3866 153.091 38.75 150.414C34.1134 147.737 30.2632 143.887 27.5862 139.25C24.9093 134.613 23.5 129.354 23.5 124C23.5 118.646 24.9093 113.387 27.5862 108.75C30.2632 104.113 34.1134 100.263 38.75 97.5862L54 124L84.5 124Z"/>
</mask>
<path d="M84.5 124C84.5 129.354 83.0907 134.613 80.4138 139.25C77.7368 143.887 73.8866 147.737 69.25 150.414C64.6134 153.091 59.3539 154.5 54 154.5C48.6461 154.5 43.3866 153.091 38.75 150.414C34.1134 147.737 30.2632 143.887 27.5862 139.25C24.9093 134.613 23.5 129.354 23.5 124C23.5 118.646 24.9093 113.387 27.5862 108.75C30.2632 104.113 34.1134 100.263 38.75 97.5862L54 124L84.5 124Z" fill="white" stroke="black" stroke-width="2" mask="url(#path-25-inside-11)"/>
<mask id="path-26-inside-12" fill="white">
<path d="M84.5 124C84.5 129.354 83.0907 134.613 80.4138 139.25C77.7368 143.887 73.8866 147.737 69.25 150.414C64.6134 153.091 59.3539 154.5 54 154.5C48.6461 154.5 43.3866 153.091 38.75 150.414L54 124L84.5 124Z"/>
</mask>
<path d="M84.5 124C84.5 129.354 83.0907 134.613 80.4138 139.25C77.7368 143.887 73.8866 147.737 69.25 150.414C64.6134 153.091 59.3539 154.5 54 154.5C48.6461 154.5 43.3866 153.091 38.75 150.414L54 124L84.5 124Z" fill="white" stroke="black" stroke-width="2" mask="url(#path-26-inside-12)"/>
<circle cx="54" cy="124" r="27" fill="white" stroke="black"/>
<circle cx="54" cy="124" r="23" fill="white" stroke="black"/>
<circle cx="54.0004" cy="124" r="15" transform="rotate(150 54.0004 124)" fill="white" stroke="black"/>
<circle cx="54.0013" cy="124" r="4" transform="rotate(150 54.0013 124)" fill="white" stroke="black"/>
<rect x="50.2324" y="122.473" width="1" height="10.6258" transform="rotate(105 50.2324 122.473)" fill="black"/>
<circle cx="74.3555" cy="74.8561" r="30" fill="white" stroke="black"/>
<mask id="path-33-inside-13" fill="white">
<path d="M104.855 74.8561C104.855 81.9124 102.409 88.7505 97.9323 94.2051C93.4558 99.6597 87.2265 103.393 80.3057 104.77C73.385 106.147 66.201 105.081 59.9779 101.755C53.7547 98.4283 48.8775 93.0471 46.1771 86.5279C43.4768 80.0087 43.1204 72.7549 45.1688 66.0024C47.2171 59.2499 51.5434 53.4165 57.4106 49.4963C63.2777 45.576 70.3226 43.8113 77.345 44.5029C84.3673 45.1946 90.9326 48.2997 95.9222 53.2893L74.3555 74.8561H104.855Z"/>
</mask>
<path d="M104.855 74.8561C104.855 81.9124 102.409 88.7505 97.9323 94.2051C93.4558 99.6597 87.2265 103.393 80.3057 104.77C73.385 106.147 66.201 105.081 59.9779 101.755C53.7547 98.4283 48.8775 93.0471 46.1771 86.5279C43.4768 80.0087 43.1204 72.7549 45.1688 66.0024C47.2171 59.2499 51.5434 53.4165 57.4106 49.4963C63.2777 45.576 70.3226 43.8113 77.345 44.5029C84.3673 45.1946 90.9326 48.2997 95.9222 53.2893L74.3555 74.8561H104.855Z" fill="white" stroke="black" stroke-width="2" mask="url(#path-33-inside-13)"/>
<mask id="path-34-inside-14" fill="white">
<path d="M104.855 74.8561C104.855 80.8884 103.067 86.7853 99.7153 91.801C96.3639 96.8167 91.6005 100.726 86.0273 103.034C80.4542 105.343 74.3216 105.947 68.4052 104.77C62.4888 103.593 57.0542 100.688 52.7887 96.4228C48.5232 92.1573 45.6184 86.7228 44.4415 80.8063C43.2647 74.8899 43.8687 68.7574 46.1771 63.1842C48.4856 57.6111 52.3949 52.8476 57.4106 49.4963C62.4263 46.1449 68.3231 44.3561 74.3555 44.3561L74.3555 74.8561L104.855 74.8561Z"/>
</mask>
<path d="M104.855 74.8561C104.855 80.8884 103.067 86.7853 99.7153 91.801C96.3639 96.8167 91.6005 100.726 86.0273 103.034C80.4542 105.343 74.3216 105.947 68.4052 104.77C62.4888 103.593 57.0542 100.688 52.7887 96.4228C48.5232 92.1573 45.6184 86.7228 44.4415 80.8063C43.2647 74.8899 43.8687 68.7574 46.1771 63.1842C48.4856 57.6111 52.3949 52.8476 57.4106 49.4963C62.4263 46.1449 68.3231 44.3561 74.3555 44.3561L74.3555 74.8561L104.855 74.8561Z" fill="white" stroke="black" stroke-width="2" mask="url(#path-34-inside-14)"/>
<mask id="path-35-inside-15" fill="white">
<path d="M104.855 74.8561C104.855 80.2099 103.446 85.4695 100.769 90.1061C98.0923 94.7427 94.2421 98.5929 89.6055 101.27C84.9689 103.947 79.7093 105.356 74.3555 105.356C69.0016 105.356 63.7421 103.947 59.1055 101.27C54.4689 98.5929 50.6186 94.7427 47.9417 90.1061C45.2648 85.4695 43.8555 80.2099 43.8555 74.8561C43.8555 69.5022 45.2648 64.2427 47.9417 59.6061C50.6186 54.9695 54.4689 51.1192 59.1055 48.4423L74.3555 74.8561H104.855Z"/>
</mask>
<path d="M104.855 74.8561C104.855 80.2099 103.446 85.4695 100.769 90.1061C98.0923 94.7427 94.2421 98.5929 89.6055 101.27C84.9689 103.947 79.7093 105.356 74.3555 105.356C69.0016 105.356 63.7421 103.947 59.1055 101.27C54.4689 98.5929 50.6186 94.7427 47.9417 90.1061C45.2648 85.4695 43.8555 80.2099 43.8555 74.8561C43.8555 69.5022 45.2648 64.2427 47.9417 59.6061C50.6186 54.9695 54.4689 51.1192 59.1055 48.4423L74.3555 74.8561H104.855Z" fill="white" stroke="black" stroke-width="2" mask="url(#path-35-inside-15)"/>
<mask id="path-36-inside-16" fill="white">
<path d="M104.855 74.8561C104.855 80.2099 103.446 85.4695 100.769 90.1061C98.0923 94.7427 94.2421 98.5929 89.6055 101.27C84.9689 103.947 79.7093 105.356 74.3555 105.356C69.0016 105.356 63.7421 103.947 59.1055 101.27L74.3555 74.8561H104.855Z"/>
</mask>
<path d="M104.855 74.8561C104.855 80.2099 103.446 85.4695 100.769 90.1061C98.0923 94.7427 94.2421 98.5929 89.6055 101.27C84.9689 103.947 79.7093 105.356 74.3555 105.356C69.0016 105.356 63.7421 103.947 59.1055 101.27L74.3555 74.8561H104.855Z" fill="white" stroke="black" stroke-width="2" mask="url(#path-36-inside-16)"/>
<circle cx="74.3555" cy="74.8561" r="27" fill="white" stroke="black"/>
<circle cx="74.3555" cy="74.8561" r="23" fill="white" stroke="black"/>
<circle cx="74.3559" cy="74.8561" r="15" transform="rotate(150 74.3559 74.8561)" fill="white" stroke="black"/>
<circle cx="74.3568" cy="74.8561" r="4" transform="rotate(150 74.3568 74.8561)" fill="white" stroke="black"/>
<rect x="70.5879" y="73.3287" width="1" height="10.6258" transform="rotate(105 70.5879 73.3287)" fill="black"/>
<path d="M46.6337 23.8544L46.4 23.2469C45.9069 21.9649 44.0931 21.9649 43.6 23.2469L43.3663 23.8544C43.2187 24.2382 42.6967 24.2896 42.477 23.942L42.1293 23.3917C41.3955 22.2306 39.6166 22.5844 39.3831 23.938L39.2724 24.5794C39.2025 24.9846 38.7005 25.1369 38.4172 24.8388L37.9689 24.367C37.0227 23.3713 35.347 24.0654 35.382 25.4385L35.3986 26.0892C35.4091 26.5003 34.9465 26.7475 34.6105 26.5104L34.0787 26.1351C32.9564 25.3432 31.4483 26.3509 31.7506 27.6907L31.8938 28.3257C31.9842 28.7268 31.5788 29.0596 31.203 28.8926L30.6082 28.6283C29.353 28.0705 28.0705 29.353 28.6283 30.6082L28.8926 31.203C29.0596 31.5788 28.7268 31.9842 28.3257 31.8938L27.6907 31.7506C26.3509 31.4483 25.3432 32.9564 26.1351 34.0787L26.5104 34.6105C26.7475 34.9465 26.5003 35.4091 26.0892 35.3986L25.4385 35.382C24.0654 35.347 23.3713 37.0227 24.367 37.9689L24.8388 38.4172C25.1369 38.7005 24.9846 39.2025 24.5794 39.2724L23.938 39.3831C22.5844 39.6166 22.2306 41.3955 23.3917 42.1293L23.942 42.477C24.2896 42.6967 24.2382 43.2187 23.8544 43.3663L23.2469 43.6C21.9649 44.0931 21.9649 45.9069 23.2469 46.4L23.8544 46.6337C24.2382 46.7813 24.2896 47.3033 23.942 47.523L23.3917 47.8707C22.2306 48.6045 22.5844 50.3834 23.938 50.6169L24.5794 50.7276C24.9846 50.7975 25.1369 51.2995 24.8388 51.5828L24.367 52.0311C23.3713 52.9773 24.0654 54.653 25.4385 54.618L26.0892 54.6014C26.5003 54.5909 26.7475 55.0535 26.5104 55.3895L26.1351 55.9213C25.3432 57.0436 26.3509 58.5517 27.6907 58.2494L28.3257 58.1062C28.7268 58.0158 29.0596 58.4212 28.8926 58.797L28.6283 59.3918C28.0705 60.647 29.353 61.9295 30.6082 61.3717L31.203 61.1074C31.5788 60.9404 31.9842 61.2732 31.8938 61.6743L31.7506 62.3093C31.4483 63.6491 32.9564 64.6568 34.0787 63.8649L34.6105 63.4896C34.9465 63.2525 35.4091 63.4997 35.3986 63.9108L35.382 64.5615C35.347 65.9346 37.0227 66.6287 37.9689 65.633L38.4172 65.1612C38.7005 64.8631 39.2025 65.0154 39.2724 65.4206L39.3831 66.062C39.6166 67.4156 41.3955 67.7694 42.1293 66.6083L42.477 66.058C42.6967 65.7104 43.2187 65.7618 43.3663 66.1456L43.6 66.7531C44.0931 68.0351 45.9069 68.0351 46.4 66.7531L46.6337 66.1456C46.7813 65.7618 47.3033 65.7104 47.523 66.058L47.8707 66.6083C48.6045 67.7694 50.3834 67.4156 50.6169 66.062L50.7276 65.4206C50.7975 65.0154 51.2995 64.8631 51.5828 65.1612L52.0311 65.633C52.9773 66.6287 54.653 65.9346 54.618 64.5615L54.6014 63.9108C54.5909 63.4997 55.0535 63.2525 55.3895 63.4896L55.9213 63.8649C57.0436 64.6568 58.5517 63.6491 58.2494 62.3093L58.1062 61.6743C58.0158 61.2732 58.4212 60.9404 58.797 61.1074L59.3918 61.3717C60.647 61.9295 61.9295 60.647 61.3717 59.3918L61.1074 58.797C60.9404 58.4212 61.2732 58.0158 61.6743 58.1062L62.3093 58.2494C63.6491 58.5517 64.6568 57.0436 63.8649 55.9213L63.4896 55.3895C63.2525 55.0535 63.4997 54.5909 63.9108 54.6014L64.5615 54.618C65.9346 54.653 66.6287 52.9773 65.633 52.0311L65.1612 51.5828C64.8631 51.2995 65.0154 50.7975 65.4206 50.7276L66.062 50.6169C67.4156 50.3834 67.7694 48.6045 66.6083 47.8707L66.058 47.523C65.7104 47.3033 65.7618 46.7813 66.1456 46.6337L66.7531 46.4C68.0351 45.9069 68.0351 44.0931 66.7531 43.6L66.1456 43.3663C65.7618 43.2187 65.7104 42.6967 66.058 42.477L66.6083 42.1293C67.7694 41.3955 67.4156 39.6166 66.062 39.3831L65.4206 39.2724C65.0154 39.2025 64.8631 38.7005 65.1612 38.4172L65.633 37.9689C66.6287 37.0227 65.9346 35.347 64.5615 35.382L63.9108 35.3986C63.4997 35.4091 63.2525 34.9465 63.4896 34.6105L63.8649 34.0787C64.6568 32.9564 63.6492 31.4483 62.3093 31.7506L61.6743 31.8938C61.2732 31.9842 60.9404 31.5788 61.1074 31.203L61.3717 30.6082C61.9295 29.353 60.647 28.0705 59.3918 28.6283L58.797 28.8926C58.4212 29.0596 58.0158 28.7268 58.1062 28.3257L58.2494 27.6907C58.5517 26.3509 57.0436 25.3432 55.9213 26.1351L55.3895 26.5104C55.0535 26.7475 54.5909 26.5003 54.6014 26.0892L54.618 25.4385C54.653 24.0654 52.9773 23.3713 52.0311 24.367L51.5828 24.8388C51.2995 25.1369 50.7975 24.9846 50.7276 24.5794L50.6169 23.938C50.3834 22.5844 48.6045 22.2306 47.8707 23.3917L47.523 23.942C47.3033 24.2896 46.7813 24.2382 46.6337 23.8544Z" fill="#E6E6E6" stroke="black"/>
<path d="M30.8964 36.6719H33.162V43H34.2558V36.6719H36.5249V35.7273H30.8964V36.6719ZM38.7453 39.7614C38.7453 38.8913 39.2957 38.3942 40.0521 38.3942C40.7836 38.3942 41.2204 38.8594 41.2204 39.6584V43H42.2822V39.5305C42.2822 38.1705 41.5365 37.4744 40.4143 37.4744C39.5656 37.4744 39.0542 37.8438 38.7986 38.4332H38.7311V35.7273H37.6835V43H38.7453V39.7614ZM46.05 43.1101C47.2396 43.1101 48.0812 42.5241 48.3227 41.6364L47.3177 41.4553C47.126 41.9702 46.6643 42.233 46.0606 42.233C45.1515 42.233 44.5407 41.6435 44.5123 40.5923H48.3902V40.2159C48.3902 38.245 47.2112 37.4744 45.9754 37.4744C44.4555 37.4744 43.4541 38.6321 43.4541 40.3082C43.4541 42.0021 44.4413 43.1101 46.05 43.1101ZM44.5159 39.7969C44.5585 39.0227 45.1196 38.3516 45.9825 38.3516C46.8064 38.3516 47.3461 38.9624 47.3497 39.7969H44.5159ZM49.5683 43H50.6301V37.5455H49.5683V43ZM50.1045 36.7038C50.4703 36.7038 50.7757 36.4197 50.7757 36.0717C50.7757 35.7237 50.4703 35.4361 50.1045 35.4361C49.7352 35.4361 49.4333 35.7237 49.4333 36.0717C49.4333 36.4197 49.7352 36.7038 50.1045 36.7038ZM52.0585 43H53.1203V39.669C53.1203 38.9553 53.6707 38.4403 54.4236 38.4403C54.6437 38.4403 54.8923 38.4794 54.9775 38.5043V37.4886C54.871 37.4744 54.6615 37.4638 54.5265 37.4638C53.8873 37.4638 53.3405 37.826 53.1416 38.4119H53.0848V37.5455H52.0585V43ZM59.9838 38.8771C59.7636 38.0284 59.0995 37.4744 57.9205 37.4744C56.6883 37.4744 55.8147 38.1243 55.8147 39.0902C55.8147 39.8643 56.2835 40.3793 57.3062 40.6065L58.2295 40.8089C58.7551 40.9261 59.0001 41.1605 59.0001 41.5014C59.0001 41.924 58.5491 42.2543 57.8531 42.2543C57.2174 42.2543 56.809 41.9808 56.6812 41.4446L55.6549 41.6009C55.8325 42.5668 56.635 43.1101 57.8602 43.1101C59.1776 43.1101 60.0903 42.4105 60.0903 41.4233C60.0903 40.6527 59.6002 40.1768 58.5988 39.946L57.7323 39.7472C57.1322 39.6051 56.873 39.4027 56.8765 39.0334C56.873 38.6143 57.3275 38.3161 57.9312 38.3161C58.5917 38.3161 58.8971 38.6818 59.0214 39.0476L59.9838 38.8771ZM32.9836 55H34.0809V51.8288H37.1704V50.8878H34.0809V48.6719H37.4935V47.7273H32.9836V55ZM40.6549 55.1101C42.1926 55.1101 43.1975 53.9844 43.1975 52.2976C43.1975 50.6001 42.1926 49.4744 40.6549 49.4744C39.1173 49.4744 38.1123 50.6001 38.1123 52.2976C38.1123 53.9844 39.1173 55.1101 40.6549 55.1101ZM40.6585 54.2188C39.6535 54.2188 39.1847 53.3416 39.1847 52.294C39.1847 51.25 39.6535 50.3622 40.6585 50.3622C41.6563 50.3622 42.1251 51.25 42.1251 52.294C42.1251 53.3416 41.6563 54.2188 40.6585 54.2188ZM44.3827 55H45.4445V51.669C45.4445 50.9553 45.9949 50.4403 46.7478 50.4403C46.968 50.4403 47.2165 50.4794 47.3018 50.5043V49.4886C47.1952 49.4744 46.9857 49.4638 46.8508 49.4638C46.2116 49.4638 45.6647 49.826 45.4658 50.4119H45.409V49.5455H44.3827V55ZM50.3762 55.1101C51.5658 55.1101 52.4074 54.5241 52.6489 53.6364L51.6439 53.4553C51.4521 53.9702 50.9905 54.233 50.3868 54.233C49.4777 54.233 48.8669 53.6435 48.8385 52.5923H52.7164V52.2159C52.7164 50.245 51.5374 49.4744 50.3016 49.4744C48.7817 49.4744 47.7803 50.6321 47.7803 52.3082C47.7803 54.0021 48.7675 55.1101 50.3762 55.1101ZM48.8421 51.7969C48.8847 51.0227 49.4458 50.3516 50.3087 50.3516C51.1325 50.3516 51.6723 50.9624 51.6759 51.7969H48.8421ZM58.5313 49.5455H57.3914L56.0136 53.7429H55.9568L54.5754 49.5455H53.4355L55.417 55H56.5534L58.5313 49.5455Z" fill="black"/>
<circle cx="123.5" cy="54.5" r="30" fill="white" stroke="black"/>
<mask id="path-45-inside-17" fill="white">
<path d="M154 54.5C154 61.5563 151.553 68.3944 147.077 73.849C142.6 79.3036 136.371 83.0373 129.45 84.414C122.53 85.7906 115.346 84.7249 109.122 81.3986C102.899 78.0723 98.022 72.6911 95.3217 66.1718C92.6213 59.6526 92.265 52.3988 94.3133 45.6463C96.3617 38.8938 100.688 33.0605 106.555 29.1402C112.422 25.2199 119.467 23.4552 126.49 24.1469C133.512 24.8385 140.077 27.9437 145.067 32.9332L123.5 54.5H154Z"/>
</mask>
<path d="M154 54.5C154 61.5563 151.553 68.3944 147.077 73.849C142.6 79.3036 136.371 83.0373 129.45 84.414C122.53 85.7906 115.346 84.7249 109.122 81.3986C102.899 78.0723 98.022 72.6911 95.3217 66.1718C92.6213 59.6526 92.265 52.3988 94.3133 45.6463C96.3617 38.8938 100.688 33.0605 106.555 29.1402C112.422 25.2199 119.467 23.4552 126.49 24.1469C133.512 24.8385 140.077 27.9437 145.067 32.9332L123.5 54.5H154Z" fill="white" stroke="black" stroke-width="2" mask="url(#path-45-inside-17)"/>
<mask id="path-46-inside-18" fill="white">
<path d="M154 54.5C154 60.5323 152.211 66.4292 148.86 71.4449C145.508 76.4606 140.745 80.3699 135.172 82.6783C129.599 84.9868 123.466 85.5908 117.55 84.414C111.633 83.2371 106.199 80.3323 101.933 76.0668C97.6677 71.8013 94.7629 66.3667 93.586 60.4503C92.4092 54.5338 93.0132 48.4013 95.3217 42.8282C97.6301 37.255 101.539 32.4916 106.555 29.1402C111.571 25.7888 117.468 24 123.5 24L123.5 54.5H154Z"/>
</mask>
<path d="M154 54.5C154 60.5323 152.211 66.4292 148.86 71.4449C145.508 76.4606 140.745 80.3699 135.172 82.6783C129.599 84.9868 123.466 85.5908 117.55 84.414C111.633 83.2371 106.199 80.3323 101.933 76.0668C97.6677 71.8013 94.7629 66.3667 93.586 60.4503C92.4092 54.5338 93.0132 48.4013 95.3217 42.8282C97.6301 37.255 101.539 32.4916 106.555 29.1402C111.571 25.7888 117.468 24 123.5 24L123.5 54.5H154Z" fill="white" stroke="black" stroke-width="2" mask="url(#path-46-inside-18)"/>
<mask id="path-47-inside-19" fill="white">
<path d="M154 54.5C154 59.8539 152.591 65.1134 149.914 69.75C147.237 74.3866 143.387 78.2368 138.75 80.9138C134.113 83.5907 128.854 85 123.5 85C118.146 85 112.887 83.5907 108.25 80.9138C103.613 78.2368 99.7632 74.3866 97.0862 69.75C94.4093 65.1134 93 59.8539 93 54.5C93 49.1461 94.4093 43.8866 97.0862 39.25C99.7632 34.6134 103.613 30.7632 108.25 28.0862L123.5 54.5H154Z"/>
</mask>
<path d="M154 54.5C154 59.8539 152.591 65.1134 149.914 69.75C147.237 74.3866 143.387 78.2368 138.75 80.9138C134.113 83.5907 128.854 85 123.5 85C118.146 85 112.887 83.5907 108.25 80.9138C103.613 78.2368 99.7632 74.3866 97.0862 69.75C94.4093 65.1134 93 59.8539 93 54.5C93 49.1461 94.4093 43.8866 97.0862 39.25C99.7632 34.6134 103.613 30.7632 108.25 28.0862L123.5 54.5H154Z" fill="white" stroke="black" stroke-width="2" mask="url(#path-47-inside-19)"/>
<mask id="path-48-inside-20" fill="white">
<path d="M154 54.5C154 59.8539 152.591 65.1134 149.914 69.75C147.237 74.3866 143.387 78.2368 138.75 80.9138C134.113 83.5907 128.854 85 123.5 85C118.146 85 112.887 83.5907 108.25 80.9138L123.5 54.5H154Z"/>
</mask>
<path d="M154 54.5C154 59.8539 152.591 65.1134 149.914 69.75C147.237 74.3866 143.387 78.2368 138.75 80.9138C134.113 83.5907 128.854 85 123.5 85C118.146 85 112.887 83.5907 108.25 80.9138L123.5 54.5H154Z" fill="white" stroke="black" stroke-width="2" mask="url(#path-48-inside-20)"/>
<circle cx="123.5" cy="54.5" r="27" fill="white" stroke="black"/>
<circle cx="123.5" cy="54.5" r="23" fill="white" stroke="black"/>
<circle cx="123.5" cy="54.5" r="15" transform="rotate(150 123.5 54.5)" fill="white" stroke="black"/>
<circle cx="123.501" cy="54.5" r="4" transform="rotate(150 123.501 54.5)" fill="white" stroke="black"/>
<rect x="119.732" y="52.9727" width="1" height="10.6258" transform="rotate(105 119.732 52.9727)" fill="black"/>
<circle cx="172.645" cy="74.8555" r="30" fill="white" stroke="black"/>
<mask id="path-55-inside-21" fill="white">
<path d="M203.145 74.8555C203.145 81.9119 200.698 88.7499 196.221 94.2045C191.745 99.6591 185.516 103.393 178.595 104.769C171.674 106.146 164.49 105.08 158.267 101.754C152.044 98.4278 147.167 93.0466 144.466 86.5274C141.766 80.0082 141.41 72.7543 143.458 66.0018C145.506 59.2494 149.833 53.416 155.7 49.4957C161.567 45.5754 168.612 43.8108 175.634 44.5024C182.656 45.194 189.222 48.2992 194.211 53.2888L172.645 74.8555H203.145Z"/>
</mask>
<path d="M203.145 74.8555C203.145 81.9119 200.698 88.7499 196.221 94.2045C191.745 99.6591 185.516 103.393 178.595 104.769C171.674 106.146 164.49 105.08 158.267 101.754C152.044 98.4278 147.167 93.0466 144.466 86.5274C141.766 80.0082 141.41 72.7543 143.458 66.0018C145.506 59.2494 149.833 53.416 155.7 49.4957C161.567 45.5754 168.612 43.8108 175.634 44.5024C182.656 45.194 189.222 48.2992 194.211 53.2888L172.645 74.8555H203.145Z" fill="white" stroke="black" stroke-width="2" mask="url(#path-55-inside-21)"/>
<mask id="path-56-inside-22" fill="white">
<path d="M203.145 74.8555C203.145 80.8879 201.356 86.7847 198.004 91.8004C194.653 96.8161 189.89 100.725 184.316 103.034C178.743 105.342 172.611 105.946 166.694 104.769C160.778 103.593 155.343 100.688 151.078 96.4223C146.812 92.1568 143.907 86.7222 142.731 80.8058C141.554 74.8894 142.158 68.7568 144.466 63.1837C146.775 57.6105 150.684 52.8471 155.7 49.4957C160.715 46.1443 166.612 44.3555 172.645 44.3555L172.645 74.8555H203.145Z"/>
</mask>
<path d="M203.145 74.8555C203.145 80.8879 201.356 86.7847 198.004 91.8004C194.653 96.8161 189.89 100.725 184.316 103.034C178.743 105.342 172.611 105.946 166.694 104.769C160.778 103.593 155.343 100.688 151.078 96.4223C146.812 92.1568 143.907 86.7222 142.731 80.8058C141.554 74.8894 142.158 68.7568 144.466 63.1837C146.775 57.6105 150.684 52.8471 155.7 49.4957C160.715 46.1443 166.612 44.3555 172.645 44.3555L172.645 74.8555H203.145Z" fill="white" stroke="black" stroke-width="2" mask="url(#path-56-inside-22)"/>
<mask id="path-57-inside-23" fill="white">
<path d="M203.145 74.8555C203.145 80.2094 201.735 85.4689 199.058 90.1055C196.381 94.7421 192.531 98.5924 187.895 101.269C183.258 103.946 177.998 105.356 172.645 105.356C167.291 105.356 162.031 103.946 157.395 101.269C152.758 98.5924 148.908 94.7421 146.231 90.1055C143.554 85.4689 142.145 80.2094 142.145 74.8555C142.145 69.5017 143.554 64.2421 146.231 59.6055C148.908 54.9689 152.758 51.1187 157.395 48.4418L172.645 74.8555H203.145Z"/>
</mask>
<path d="M203.145 74.8555C203.145 80.2094 201.735 85.4689 199.058 90.1055C196.381 94.7421 192.531 98.5924 187.895 101.269C183.258 103.946 177.998 105.356 172.645 105.356C167.291 105.356 162.031 103.946 157.395 101.269C152.758 98.5924 148.908 94.7421 146.231 90.1055C143.554 85.4689 142.145 80.2094 142.145 74.8555C142.145 69.5017 143.554 64.2421 146.231 59.6055C148.908 54.9689 152.758 51.1187 157.395 48.4418L172.645 74.8555H203.145Z" fill="white" stroke="black" stroke-width="2" mask="url(#path-57-inside-23)"/>
<mask id="path-58-inside-24" fill="white">
<path d="M203.145 74.8555C203.145 80.2094 201.735 85.4689 199.058 90.1055C196.381 94.7421 192.531 98.5924 187.895 101.269C183.258 103.946 177.998 105.356 172.645 105.356C167.291 105.356 162.031 103.946 157.395 101.269L172.645 74.8555H203.145Z"/>
</mask>
<path d="M203.145 74.8555C203.145 80.2094 201.735 85.4689 199.058 90.1055C196.381 94.7421 192.531 98.5924 187.895 101.269C183.258 103.946 177.998 105.356 172.645 105.356C167.291 105.356 162.031 103.946 157.395 101.269L172.645 74.8555H203.145Z" fill="white" stroke="black" stroke-width="2" mask="url(#path-58-inside-24)"/>
<circle cx="172.645" cy="74.8555" r="27" fill="white" stroke="black"/>
<circle cx="172.645" cy="74.8555" r="23" fill="white" stroke="black"/>
<circle cx="172.645" cy="74.8555" r="15" transform="rotate(150 172.645 74.8555)" fill="white" stroke="black"/>
<circle cx="172.646" cy="74.8555" r="4" transform="rotate(150 172.646 74.8555)" fill="white" stroke="black"/>
<rect x="168.877" y="73.3282" width="1" height="10.6258" transform="rotate(105 168.877 73.3282)" fill="black"/>
<circle cx="193" cy="124" r="30" fill="white" stroke="black"/>
<mask id="path-65-inside-25" fill="white">
<path d="M223.5 124C223.5 131.056 221.053 137.894 216.577 143.349C212.1 148.804 205.871 152.537 198.95 153.914C192.03 155.291 184.846 154.225 178.622 150.899C172.399 147.572 167.522 142.191 164.822 135.672C162.121 129.153 161.765 121.899 163.813 115.146C165.862 108.394 170.188 102.56 176.055 98.6402C181.922 94.7199 188.967 92.9552 195.99 93.6469C203.012 94.3385 209.577 97.4437 214.567 102.433L193 124L223.5 124Z"/>
</mask>
<path d="M223.5 124C223.5 131.056 221.053 137.894 216.577 143.349C212.1 148.804 205.871 152.537 198.95 153.914C192.03 155.291 184.846 154.225 178.622 150.899C172.399 147.572 167.522 142.191 164.822 135.672C162.121 129.153 161.765 121.899 163.813 115.146C165.862 108.394 170.188 102.56 176.055 98.6402C181.922 94.7199 188.967 92.9552 195.99 93.6469C203.012 94.3385 209.577 97.4437 214.567 102.433L193 124L223.5 124Z" fill="white" stroke="black" stroke-width="2" mask="url(#path-65-inside-25)"/>
<mask id="path-66-inside-26" fill="white">
<path d="M223.5 124C223.5 130.032 221.711 135.929 218.36 140.945C215.008 145.961 210.245 149.87 204.672 152.178C199.099 154.487 192.966 155.091 187.05 153.914C181.133 152.737 175.699 149.832 171.433 145.567C167.168 141.301 164.263 135.867 163.086 129.95C161.909 124.034 162.513 117.901 164.822 112.328C167.13 106.755 171.039 101.992 176.055 98.6402C181.071 95.2888 186.968 93.5 193 93.5L193 124L223.5 124Z"/>
</mask>
<path d="M223.5 124C223.5 130.032 221.711 135.929 218.36 140.945C215.008 145.961 210.245 149.87 204.672 152.178C199.099 154.487 192.966 155.091 187.05 153.914C181.133 152.737 175.699 149.832 171.433 145.567C167.168 141.301 164.263 135.867 163.086 129.95C161.909 124.034 162.513 117.901 164.822 112.328C167.13 106.755 171.039 101.992 176.055 98.6402C181.071 95.2888 186.968 93.5 193 93.5L193 124L223.5 124Z" fill="white" stroke="black" stroke-width="2" mask="url(#path-66-inside-26)"/>
<mask id="path-67-inside-27" fill="white">
<path d="M223.5 124C223.5 129.354 222.091 134.613 219.414 139.25C216.737 143.887 212.887 147.737 208.25 150.414C203.613 153.091 198.354 154.5 193 154.5C187.646 154.5 182.387 153.091 177.75 150.414C173.113 147.737 169.263 143.887 166.586 139.25C163.909 134.613 162.5 129.354 162.5 124C162.5 118.646 163.909 113.387 166.586 108.75C169.263 104.113 173.113 100.263 177.75 97.5862L193 124L223.5 124Z"/>
</mask>
<path d="M223.5 124C223.5 129.354 222.091 134.613 219.414 139.25C216.737 143.887 212.887 147.737 208.25 150.414C203.613 153.091 198.354 154.5 193 154.5C187.646 154.5 182.387 153.091 177.75 150.414C173.113 147.737 169.263 143.887 166.586 139.25C163.909 134.613 162.5 129.354 162.5 124C162.5 118.646 163.909 113.387 166.586 108.75C169.263 104.113 173.113 100.263 177.75 97.5862L193 124L223.5 124Z" fill="white" stroke="black" stroke-width="2" mask="url(#path-67-inside-27)"/>
<mask id="path-68-inside-28" fill="white">
<path d="M223.5 124C223.5 129.354 222.091 134.613 219.414 139.25C216.737 143.887 212.887 147.737 208.25 150.414C203.613 153.091 198.354 154.5 193 154.5C187.646 154.5 182.387 153.091 177.75 150.414L193 124L223.5 124Z"/>
</mask>
<path d="M223.5 124C223.5 129.354 222.091 134.613 219.414 139.25C216.737 143.887 212.887 147.737 208.25 150.414C203.613 153.091 198.354 154.5 193 154.5C187.646 154.5 182.387 153.091 177.75 150.414L193 124L223.5 124Z" fill="white" stroke="black" stroke-width="2" mask="url(#path-68-inside-28)"/>
<circle cx="193" cy="124" r="27" fill="white" stroke="black"/>
<circle cx="193" cy="124" r="23" fill="white" stroke="black"/>
<circle cx="193" cy="124" r="15" transform="rotate(150 193 124)" fill="white" stroke="black"/>
<circle cx="193.001" cy="124" r="4" transform="rotate(150 193.001 124)" fill="white" stroke="black"/>
<rect x="189.232" y="122.473" width="1" height="10.6258" transform="rotate(105 189.232 122.473)" fill="black"/>
<circle cx="172.645" cy="173.144" r="30" fill="white" stroke="black"/>
<mask id="path-75-inside-29" fill="white">
<path d="M203.145 173.144C203.145 180.2 200.698 187.038 196.221 192.493C191.745 197.948 185.516 201.681 178.595 203.058C171.674 204.434 164.49 203.369 158.267 200.043C152.044 196.716 147.167 191.335 144.466 184.816C141.766 178.297 141.41 171.043 143.458 164.29C145.506 157.538 149.833 151.704 155.7 147.784C161.567 143.864 168.612 142.099 175.634 142.791C182.656 143.482 189.222 146.588 194.211 151.577L172.645 173.144H203.145Z"/>
</mask>
<path d="M203.145 173.144C203.145 180.2 200.698 187.038 196.221 192.493C191.745 197.948 185.516 201.681 178.595 203.058C171.674 204.434 164.49 203.369 158.267 200.043C152.044 196.716 147.167 191.335 144.466 184.816C141.766 178.297 141.41 171.043 143.458 164.29C145.506 157.538 149.833 151.704 155.7 147.784C161.567 143.864 168.612 142.099 175.634 142.791C182.656 143.482 189.222 146.588 194.211 151.577L172.645 173.144H203.145Z" fill="white" stroke="black" stroke-width="2" mask="url(#path-75-inside-29)"/>
<mask id="path-76-inside-30" fill="white">
<path d="M203.145 173.144C203.145 179.176 201.356 185.073 198.004 190.089C194.653 195.105 189.89 199.014 184.316 201.322C178.743 203.631 172.611 204.235 166.694 203.058C160.778 201.881 155.343 198.976 151.078 194.711C146.812 190.445 143.907 185.011 142.731 179.094C141.554 173.178 142.158 167.045 144.466 161.472C146.775 155.899 150.684 151.135 155.7 147.784C160.715 144.433 166.612 142.644 172.645 142.644L172.645 173.144H203.145Z"/>
</mask>
<path d="M203.145 173.144C203.145 179.176 201.356 185.073 198.004 190.089C194.653 195.105 189.89 199.014 184.316 201.322C178.743 203.631 172.611 204.235 166.694 203.058C160.778 201.881 155.343 198.976 151.078 194.711C146.812 190.445 143.907 185.011 142.731 179.094C141.554 173.178 142.158 167.045 144.466 161.472C146.775 155.899 150.684 151.135 155.7 147.784C160.715 144.433 166.612 142.644 172.645 142.644L172.645 173.144H203.145Z" fill="white" stroke="black" stroke-width="2" mask="url(#path-76-inside-30)"/>
<mask id="path-77-inside-31" fill="white">
<path d="M203.145 173.144C203.145 178.498 201.735 183.757 199.058 188.394C196.381 193.031 192.531 196.881 187.895 199.558C183.258 202.235 177.998 203.644 172.645 203.644C167.291 203.644 162.031 202.235 157.395 199.558C152.758 196.881 148.908 193.031 146.231 188.394C143.554 183.757 142.145 178.498 142.145 173.144C142.145 167.79 143.554 162.531 146.231 157.894C148.908 153.257 152.758 149.407 157.395 146.73L172.645 173.144H203.145Z"/>
</mask>
<path d="M203.145 173.144C203.145 178.498 201.735 183.757 199.058 188.394C196.381 193.031 192.531 196.881 187.895 199.558C183.258 202.235 177.998 203.644 172.645 203.644C167.291 203.644 162.031 202.235 157.395 199.558C152.758 196.881 148.908 193.031 146.231 188.394C143.554 183.757 142.145 178.498 142.145 173.144C142.145 167.79 143.554 162.531 146.231 157.894C148.908 153.257 152.758 149.407 157.395 146.73L172.645 173.144H203.145Z" fill="white" stroke="black" stroke-width="2" mask="url(#path-77-inside-31)"/>
<mask id="path-78-inside-32" fill="white">
<path d="M203.145 173.144C203.145 178.498 201.735 183.757 199.058 188.394C196.381 193.031 192.531 196.881 187.895 199.558C183.258 202.235 177.998 203.644 172.645 203.644C167.291 203.644 162.031 202.235 157.395 199.558L172.645 173.144H203.145Z"/>
</mask>
<path d="M203.145 173.144C203.145 178.498 201.735 183.757 199.058 188.394C196.381 193.031 192.531 196.881 187.895 199.558C183.258 202.235 177.998 203.644 172.645 203.644C167.291 203.644 162.031 202.235 157.395 199.558L172.645 173.144H203.145Z" fill="white" stroke="black" stroke-width="2" mask="url(#path-78-inside-32)"/>
<circle cx="172.645" cy="173.144" r="27" fill="white" stroke="black"/>
<circle cx="172.645" cy="173.144" r="23" fill="white" stroke="black"/>
<circle cx="172.645" cy="173.144" r="15" transform="rotate(150 172.645 173.144)" fill="white" stroke="black"/>
<circle cx="172.646" cy="173.144" r="4" transform="rotate(150 172.646 173.144)" fill="white" stroke="black"/>
<rect x="168.877" y="171.617" width="1" height="10.6258" transform="rotate(105 168.877 171.617)" fill="black"/>
<path d="M204.634 180.854L204.4 180.247C203.907 178.965 202.093 178.965 201.6 180.247L201.366 180.854C201.219 181.238 200.697 181.29 200.477 180.942L200.129 180.392C199.396 179.231 197.617 179.584 197.383 180.938L197.272 181.579C197.202 181.985 196.701 182.137 196.417 181.839L195.969 181.367C195.023 180.371 193.347 181.065 193.382 182.438L193.399 183.089C193.409 183.5 192.946 183.748 192.61 183.51L192.079 183.135C190.956 182.343 189.448 183.351 189.751 184.691L189.894 185.326C189.984 185.727 189.579 186.06 189.203 185.893L188.608 185.628C187.353 185.07 186.07 186.353 186.628 187.608L186.893 188.203C187.06 188.579 186.727 188.984 186.326 188.894L185.691 188.751C184.351 188.448 183.343 189.956 184.135 191.079L184.51 191.61C184.748 191.946 184.5 192.409 184.089 192.399L183.438 192.382C182.065 192.347 181.371 194.023 182.367 194.969L182.839 195.417C183.137 195.701 182.985 196.202 182.579 196.272L181.938 196.383C180.584 196.617 180.231 198.396 181.392 199.129L181.942 199.477C182.29 199.697 182.238 200.219 181.854 200.366L181.247 200.6C179.965 201.093 179.965 202.907 181.247 203.4L181.854 203.634C182.238 203.781 182.29 204.303 181.942 204.523L181.392 204.871C180.231 205.604 180.584 207.383 181.938 207.617L182.579 207.728C182.985 207.798 183.137 208.299 182.839 208.583L182.367 209.031C181.371 209.977 182.065 211.653 183.438 211.618L184.089 211.601C184.5 211.591 184.748 212.054 184.51 212.39L184.135 212.921C183.343 214.044 184.351 215.552 185.691 215.249L186.326 215.106C186.727 215.016 187.06 215.421 186.893 215.797L186.628 216.392C186.07 217.647 187.353 218.93 188.608 218.372L189.203 218.107C189.579 217.94 189.984 218.273 189.894 218.674L189.751 219.309C189.448 220.649 190.956 221.657 192.079 220.865L192.61 220.49C192.946 220.252 193.409 220.5 193.399 220.911L193.382 221.562C193.347 222.935 195.023 223.629 195.969 222.633L196.417 222.161C196.701 221.863 197.202 222.015 197.272 222.421L197.383 223.062C197.617 224.416 199.396 224.769 200.129 223.608L200.477 223.058C200.697 222.71 201.219 222.762 201.366 223.146L201.6 223.753C202.093 225.035 203.907 225.035 204.4 223.753L204.634 223.146C204.781 222.762 205.303 222.71 205.523 223.058L205.871 223.608C206.604 224.769 208.383 224.416 208.617 223.062L208.728 222.421C208.798 222.015 209.299 221.863 209.583 222.161L210.031 222.633C210.977 223.629 212.653 222.935 212.618 221.562L212.601 220.911C212.591 220.5 213.054 220.252 213.39 220.49L213.921 220.865C215.044 221.657 216.552 220.649 216.249 219.309L216.106 218.674C216.016 218.273 216.421 217.94 216.797 218.107L217.392 218.372C218.647 218.93 219.93 217.647 219.372 216.392L219.107 215.797C218.94 215.421 219.273 215.016 219.674 215.106L220.309 215.249C221.649 215.552 222.657 214.044 221.865 212.921L221.49 212.39C221.252 212.054 221.5 211.591 221.911 211.601L222.562 211.618C223.935 211.653 224.629 209.977 223.633 209.031L223.161 208.583C222.863 208.299 223.015 207.798 223.421 207.728L224.062 207.617C225.416 207.383 225.769 205.604 224.608 204.871L224.058 204.523C223.71 204.303 223.762 203.781 224.146 203.634L224.753 203.4C226.035 202.907 226.035 201.093 224.753 200.6L224.146 200.366C223.762 200.219 223.71 199.697 224.058 199.477L224.608 199.129C225.769 198.396 225.416 196.617 224.062 196.383L223.421 196.272C223.015 196.202 222.863 195.701 223.161 195.417L223.633 194.969C224.629 194.023 223.935 192.347 222.562 192.382L221.911 192.399C221.5 192.409 221.252 191.946 221.49 191.61L221.865 191.079C222.657 189.956 221.649 188.448 220.309 188.751L219.674 188.894C219.273 188.984 218.94 188.579 219.107 188.203L219.372 187.608C219.93 186.353 218.647 185.07 217.392 185.628L216.797 185.893C216.421 186.06 216.016 185.727 216.106 185.326L216.249 184.691C216.552 183.351 215.044 182.343 213.921 183.135L213.39 183.51C213.054 183.748 212.591 183.5 212.601 183.089L212.618 182.438C212.653 181.065 210.977 180.371 210.031 181.367L209.583 181.839C209.299 182.137 208.798 181.985 208.728 181.579L208.617 180.938C208.383 179.584 206.604 179.231 205.871 180.392L205.523 180.942C205.303 181.29 204.781 181.238 204.634 180.854Z" fill="white" stroke="black"/>
<path d="M189.673 192.727L192.312 197.145V200H193.406V197.145L196.044 192.727H194.798L192.898 196.033H192.82L190.92 192.727H189.673ZM198.404 200.11C199.942 200.11 200.947 198.984 200.947 197.298C200.947 195.6 199.942 194.474 198.404 194.474C196.866 194.474 195.861 195.6 195.861 197.298C195.861 198.984 196.866 200.11 198.404 200.11ZM198.407 199.219C197.403 199.219 196.934 198.342 196.934 197.294C196.934 196.25 197.403 195.362 198.407 195.362C199.405 195.362 199.874 196.25 199.874 197.294C199.874 198.342 199.405 199.219 198.407 199.219ZM205.587 197.738C205.591 198.665 204.902 199.105 204.305 199.105C203.648 199.105 203.194 198.629 203.194 197.887V194.545H202.132V198.015C202.132 199.368 202.874 200.071 203.922 200.071C204.742 200.071 205.299 199.638 205.551 199.055H205.608V200H206.652V194.545H205.587V197.738ZM208.079 200H209.141V196.669C209.141 195.955 209.691 195.44 210.444 195.44C210.664 195.44 210.913 195.479 210.998 195.504V194.489C210.892 194.474 210.682 194.464 210.547 194.464C209.908 194.464 209.361 194.826 209.162 195.412H209.105V194.545H208.079V200ZM216.004 195.877C215.784 195.028 215.12 194.474 213.941 194.474C212.709 194.474 211.835 195.124 211.835 196.09C211.835 196.864 212.304 197.379 213.327 197.607L214.25 197.809C214.776 197.926 215.021 198.161 215.021 198.501C215.021 198.924 214.57 199.254 213.874 199.254C213.238 199.254 212.83 198.981 212.702 198.445L211.675 198.601C211.853 199.567 212.656 200.11 213.881 200.11C215.198 200.11 216.111 199.411 216.111 198.423C216.111 197.653 215.621 197.177 214.619 196.946L213.753 196.747C213.153 196.605 212.893 196.403 212.897 196.033C212.893 195.614 213.348 195.316 213.952 195.316C214.612 195.316 214.918 195.682 215.042 196.048L216.004 195.877ZM190.484 212H191.581V208.829H194.67V207.888H191.581V205.672H194.994V204.727H190.484V212ZM198.155 212.11C199.693 212.11 200.698 210.984 200.698 209.298C200.698 207.6 199.693 206.474 198.155 206.474C196.617 206.474 195.612 207.6 195.612 209.298C195.612 210.984 196.617 212.11 198.155 212.11ZM198.158 211.219C197.153 211.219 196.685 210.342 196.685 209.294C196.685 208.25 197.153 207.362 198.158 207.362C199.156 207.362 199.625 208.25 199.625 209.294C199.625 210.342 199.156 211.219 198.158 211.219ZM201.883 212H202.945V208.669C202.945 207.955 203.495 207.44 204.248 207.44C204.468 207.44 204.717 207.479 204.802 207.504V206.489C204.695 206.474 204.486 206.464 204.351 206.464C203.712 206.464 203.165 206.826 202.966 207.412H202.909V206.545H201.883V212ZM207.876 212.11C209.066 212.11 209.907 211.524 210.149 210.636L209.144 210.455C208.952 210.97 208.491 211.233 207.887 211.233C206.978 211.233 206.367 210.643 206.339 209.592H210.216V209.216C210.216 207.245 209.037 206.474 207.802 206.474C206.282 206.474 205.28 207.632 205.28 209.308C205.28 211.002 206.267 212.11 207.876 212.11ZM206.342 208.797C206.385 208.023 206.946 207.352 207.809 207.352C208.633 207.352 209.172 207.962 209.176 208.797H206.342ZM216.031 206.545H214.891L213.514 210.743H213.457L212.075 206.545H210.935L212.917 212H214.053L216.031 206.545Z" fill="black"/>
<mask id="mask0" mask-type="alpha" maskUnits="userSpaceOnUse" x="137" y="166" width="50" height="50">
<rect x="137" y="166" width="50" height="50" fill="#C4C4C4"/>
</mask>
<g mask="url(#mask0)">
<circle cx="123.5" cy="193.5" r="30" fill="white" stroke="black"/>
<mask id="path-88-inside-33" fill="white">
<path d="M154 193.5C154 200.556 151.553 207.394 147.077 212.849C142.6 218.304 136.371 222.037 129.45 223.414C122.53 224.791 115.346 223.725 109.122 220.399C102.899 217.072 98.022 211.691 95.3217 205.172C92.6213 198.653 92.265 191.399 94.3133 184.646C96.3617 177.894 100.688 172.06 106.555 168.14C112.422 164.22 119.467 162.455 126.49 163.147C133.512 163.839 140.077 166.944 145.067 171.933L123.5 193.5H154Z"/>
</mask>
<path d="M154 193.5C154 200.556 151.553 207.394 147.077 212.849C142.6 218.304 136.371 222.037 129.45 223.414C122.53 224.791 115.346 223.725 109.122 220.399C102.899 217.072 98.022 211.691 95.3217 205.172C92.6213 198.653 92.265 191.399 94.3133 184.646C96.3617 177.894 100.688 172.06 106.555 168.14C112.422 164.22 119.467 162.455 126.49 163.147C133.512 163.839 140.077 166.944 145.067 171.933L123.5 193.5H154Z" fill="white" stroke="black" stroke-width="2" mask="url(#path-88-inside-33)"/>
<mask id="path-89-inside-34" fill="white">
<path d="M154 193.5C154 199.532 152.211 205.429 148.86 210.445C145.508 215.461 140.745 219.37 135.172 221.678C129.599 223.987 123.466 224.591 117.55 223.414C111.633 222.237 106.199 219.332 101.933 215.067C97.6677 210.801 94.7629 205.367 93.586 199.45C92.4092 193.534 93.0132 187.401 95.3217 181.828C97.6301 176.255 101.539 171.492 106.555 168.14C111.571 164.789 117.468 163 123.5 163L123.5 193.5H154Z"/>
</mask>
<path d="M154 193.5C154 199.532 152.211 205.429 148.86 210.445C145.508 215.461 140.745 219.37 135.172 221.678C129.599 223.987 123.466 224.591 117.55 223.414C111.633 222.237 106.199 219.332 101.933 215.067C97.6677 210.801 94.7629 205.367 93.586 199.45C92.4092 193.534 93.0132 187.401 95.3217 181.828C97.6301 176.255 101.539 171.492 106.555 168.14C111.571 164.789 117.468 163 123.5 163L123.5 193.5H154Z" fill="white" stroke="black" stroke-width="2" mask="url(#path-89-inside-34)"/>
<mask id="path-90-inside-35" fill="white">
<path d="M154 193.5C154 198.854 152.591 204.113 149.914 208.75C147.237 213.387 143.387 217.237 138.75 219.914C134.113 222.591 128.854 224 123.5 224C118.146 224 112.887 222.591 108.25 219.914C103.613 217.237 99.7632 213.387 97.0862 208.75C94.4093 204.113 93 198.854 93 193.5C93 188.146 94.4093 182.887 97.0862 178.25C99.7632 173.613 103.613 169.763 108.25 167.086L123.5 193.5H154Z"/>
</mask>
<path d="M154 193.5C154 198.854 152.591 204.113 149.914 208.75C147.237 213.387 143.387 217.237 138.75 219.914C134.113 222.591 128.854 224 123.5 224C118.146 224 112.887 222.591 108.25 219.914C103.613 217.237 99.7632 213.387 97.0862 208.75C94.4093 204.113 93 198.854 93 193.5C93 188.146 94.4093 182.887 97.0862 178.25C99.7632 173.613 103.613 169.763 108.25 167.086L123.5 193.5H154Z" fill="white" stroke="black" stroke-width="2" mask="url(#path-90-inside-35)"/>
<mask id="path-91-inside-36" fill="white">
<path d="M154 193.5C154 198.854 152.591 204.113 149.914 208.75C147.237 213.387 143.387 217.237 138.75 219.914C134.113 222.591 128.854 224 123.5 224C118.146 224 112.887 222.591 108.25 219.914L123.5 193.5H154Z"/>
</mask>
<path d="M154 193.5C154 198.854 152.591 204.113 149.914 208.75C147.237 213.387 143.387 217.237 138.75 219.914C134.113 222.591 128.854 224 123.5 224C118.146 224 112.887 222.591 108.25 219.914L123.5 193.5H154Z" fill="white" stroke="black" stroke-width="2" mask="url(#path-91-inside-36)"/>
<circle cx="123.5" cy="193.5" r="27" fill="white" stroke="black"/>
<circle cx="123.5" cy="193.5" r="23" fill="white" stroke="black"/>
<circle cx="123.5" cy="193.5" r="15" transform="rotate(150 123.5 193.5)" fill="white" stroke="black"/>
</g>
</svg>
